<svg xmlns="http://www.w3.org/2000/svg" xmlns:xlink="http://www.w3.org/1999/xlink" version="1.1" width="57" height="71" viewBox="-0.4869999997317791 -0.5190000012516975 57 71">
  <!-- Exported by Scratch - http://scratch.mit.edu/ -->
  <path id="path3091" fill="#ebebeb" stroke="none" d="M 14.013 -0.019 C 10.111 -0.019 6.835 1.341 4.138 4.075 C 1.403 6.809 0.013 10.117 0.013 13.981 L 0.013 55.981 C 0.013 59.882 1.377 63.19 4.075 65.888 C 6.809 68.622 10.111 69.981 14.013 69.981 L 42.013 69.981 C 45.877 69.981 49.158 68.648 51.856 65.95 C 54.627 63.216 56.012 59.882 56.013 55.981 L 56.013 41.981 C 56.012 38.117 54.653 34.835 51.919 32.138 C 49.184 29.367 45.877 27.981 42.013 27.981 L 21.013 27.981 C 19.08 27.981 17.429 27.299 16.044 25.95 C 14.695 24.565 14.012 22.914 14.013 20.981 C 14.012 19.085 14.695 17.46 16.044 16.075 C 17.429 14.69 19.08 13.981 21.013 13.981 L 49.013 13.981 C 50.908 13.981 52.565 13.299 53.95 11.95 C 55.335 10.565 56.012 8.914 56.013 6.981 C 56.012 5.085 55.335 3.46 53.95 2.075 C 52.565 0.69 50.908 -0.019 49.013 -0.019 L 14.013 -0.019 Z M 21.013 41.981 L 35.013 41.981 C 36.908 41.981 38.565 42.69 39.95 44.075 C 41.335 45.46 42.012 47.085 42.013 48.981 C 42.012 50.914 41.335 52.565 39.95 53.95 C 38.565 55.299 36.908 55.981 35.013 55.981 L 21.013 55.981 C 19.08 55.981 17.429 55.299 16.044 53.95 C 14.695 52.565 14.012 50.914 14.013 48.981 C 14.012 47.085 14.695 45.46 16.044 44.075 C 17.429 42.69 19.08 41.981 21.013 41.981 Z " stroke-width="1"/>
</svg>