<svg xmlns="http://www.w3.org/2000/svg" xmlns:xlink="http://www.w3.org/1999/xlink" version="1.1" width="12.161999702453613" height="18.36400032043457" viewBox="-0.3540000021457672 0.07300001382827759 12.161999702453613 18.36400032043457">
  <!-- Exported by Scratch - http://scratch.mit.edu/ -->
  <g id="ID0.7176098888739944">
    <g id="text3428">
      <path id="path3460" fill="#808080" stroke="none" stroke-width="1" d="M 11.308 6.328 C 11.3 10.76 9.233 14.629 5.107 17.937 L 2.626 16.101 C 5.247 14.844 6.855 13.224 7.451 11.239 C 6.748 11.57 6.173 11.735 5.727 11.735 C 4.189 11.735 2.874 11.19 1.783 10.098 C 0.691 9.007 0.146 7.692 0.146 6.154 C 0.146 4.616 0.691 3.302 1.783 2.21 C 2.874 1.119 4.189 0.573 5.727 0.573 C 7.265 0.573 8.579 1.119 9.671 2.21 C 10.762 3.302 11.308 4.616 11.308 6.154 L 11.308 6.328 Z M 8.592 7.382 C 8.683 7.018 8.761 6.65 8.827 6.278 L 8.827 6.154 C 8.827 5.294 8.526 4.563 7.922 3.959 C 7.318 3.356 6.587 3.054 5.727 3.054 C 4.867 3.054 4.135 3.356 3.532 3.959 C 2.928 4.563 2.626 5.294 2.626 6.154 C 2.626 7.014 2.928 7.746 3.532 8.35 C 4.135 8.953 4.867 9.255 5.727 9.255 C 6.587 9.255 7.318 8.953 7.922 8.35 C 8.22 8.052 8.443 7.729 8.592 7.382 Z "/>
    </g>
  </g>
</svg>