<svg xmlns="http://www.w3.org/2000/svg" xmlns:xlink="http://www.w3.org/1999/xlink" version="1.1" width="12.161999702453613" height="18.36400032043457" viewBox="-0.3540000021457672 0.07300001382827759 12.161999702453613 18.36400032043457">
  <!-- Exported by Scratch - http://scratch.mit.edu/ -->
  <g id="ID0.6706256903707981">
    <g id="text3428">
      <path id="path3457" fill="#FFFFFF" stroke="none" stroke-width="1" d="M 7.922 14.551 C 8.526 13.947 8.827 13.215 8.827 12.356 C 8.827 11.496 8.526 10.764 7.922 10.16 C 7.318 9.557 6.587 9.255 5.727 9.255 C 4.867 9.255 4.135 9.557 3.532 10.16 C 2.928 10.764 2.626 11.496 2.626 12.356 C 2.626 13.215 2.928 13.947 3.532 14.551 C 4.135 15.154 4.867 15.456 5.727 15.456 C 6.587 15.456 7.318 15.154 7.922 14.551 Z M 7.041 6.229 C 7.405 5.865 7.587 5.427 7.587 4.914 C 7.587 4.401 7.405 3.963 7.041 3.599 C 6.678 3.236 6.239 3.054 5.727 3.054 C 5.214 3.054 4.776 3.236 4.412 3.599 C 4.048 3.963 3.866 4.401 3.866 4.914 C 3.866 5.427 4.048 5.865 4.412 6.229 C 4.776 6.593 5.214 6.774 5.727 6.774 C 6.239 6.774 6.678 6.593 7.041 6.229 Z M 8.79 1.851 C 9.642 2.694 10.068 3.715 10.068 4.914 C 10.068 6.03 9.7 6.994 8.964 7.804 C 9.212 7.986 9.447 8.188 9.671 8.412 C 10.762 9.503 11.308 10.818 11.308 12.356 C 11.308 13.893 10.762 15.208 9.671 16.299 C 8.579 17.391 7.265 17.937 5.727 17.937 C 4.189 17.937 2.874 17.391 1.783 16.299 C 0.691 15.208 0.146 13.893 0.146 12.356 C 0.146 10.818 0.691 9.503 1.783 8.412 C 2.006 8.188 2.242 7.986 2.49 7.804 C 1.754 6.994 1.386 6.03 1.386 4.914 C 1.386 3.715 1.808 2.694 2.651 1.851 C 3.503 0.999 4.528 0.573 5.727 0.573 C 6.926 0.573 7.947 0.999 8.79 1.851 Z "/>
    </g>
  </g>
</svg>