<svg xmlns="http://www.w3.org/2000/svg" xmlns:xlink="http://www.w3.org/1999/xlink" version="1.1" width="57" height="71" viewBox="-0.4619999974966049 -0.4869999997317791 57 71">
  <!-- Exported by Scratch - http://scratch.mit.edu/ -->
  <path id="path3103" fill="#EBEBEB" stroke="none" d="M 7.038 0.013 C 5.105 0.013 3.423 0.721 2.038 2.106 C 0.689 3.492 0.038 5.117 0.038 7.013 C 0.038 8.945 0.689 10.627 2.038 12.013 C 3.423 13.362 5.105 14.013 7.038 14.013 L 35.038 14.013 C 36.933 14.013 38.558 14.721 39.944 16.106 C 41.329 17.492 42.037 19.117 42.038 21.013 C 42.037 22.945 41.329 24.627 39.944 26.013 C 38.558 27.362 36.933 28.013 35.038 28.013 L 14.038 28.013 C 10.136 28.013 6.803 29.398 4.069 32.169 C 1.371 34.867 0.038 38.148 0.038 42.013 L 0.038 56.013 C 0.038 59.914 1.397 63.247 4.131 65.981 C 6.829 68.679 10.136 70.013 14.038 70.013 L 49.038 70.013 C 50.933 70.013 52.558 69.361 53.944 68.013 C 55.329 66.627 56.037 64.945 56.038 63.013 C 56.037 61.117 55.329 59.492 53.944 58.106 C 52.558 56.721 50.933 56.013 49.038 56.013 L 21.038 56.013 C 19.105 56.013 17.423 55.361 16.038 54.013 C 14.689 52.627 14.037 50.945 14.038 49.013 C 14.037 47.117 14.689 45.492 16.038 44.106 C 17.423 42.721 19.105 42.013 21.038 42.013 L 42.038 42.013 C 45.902 42.013 49.178 40.653 51.913 37.919 C 54.647 35.221 56.037 31.914 56.038 28.013 L 56.038 14.013 C 56.037 10.148 54.652 6.872 51.881 4.138 C 49.183 1.403 45.902 0.013 42.038 0.013 L 7.038 0.013 Z " stroke-width="1"/>
</svg>