<svg xmlns="http://www.w3.org/2000/svg" xmlns:xlink="http://www.w3.org/1999/xlink" version="1.1" width="246.88086032867432" height="42.17045307159424" viewBox="-1.0810763612389565 -1.0757763534784317 246.88086032867432 42.17045307159424">
  <!-- Exported by Scratch - http://scratch.mit.edu/ -->
  <g id="ID0.25359293865039945">
    <path id="path7" fill="#CD2138" stroke="none" d="M 0.0739 8.7784 C 0.0739 3.9899 3.9593 0.0792 8.7732 0.0792 L 235.9455 0.0792 C 240.7594 0.0792 244.6448 3.9899 244.6448 8.7784 L 244.6448 31.2404 C 244.6448 36.029 240.7594 39.9397 235.9455 39.9397 L 8.7732 39.9397 C 3.9593 39.9397 0.0739 36.029 0.0739 31.2404 Z " stroke-width="2.309952735900879"/>
    <g id="text9">
      <path id="path3347" fill="#ffffff" stroke="none" d="M 85.7039 12.4813 L 81.1625 12.4813 L 81.1625 18.538 L 85.7039 18.538 C 86.5424 18.538 87.2538 18.2446 87.8406 17.6602 C 88.4342 17.0642 88.7322 16.3482 88.7322 15.5096 C 88.7322 14.6734 88.4342 13.962 87.8406 13.3753 C 87.2538 12.7793 86.5424 12.4813 85.7039 12.4813 Z M 83.1906 21.5663 L 81.1625 21.5663 L 81.1625 30.6514 L 78.1342 30.6514 L 78.1342 9.4553 L 85.7039 9.4553 C 87.3809 9.4553 88.8084 10.0443 89.9888 11.2247 C 91.1692 12.4074 91.7606 13.8349 91.7606 15.5096 C 91.7606 17.1867 91.1692 18.6142 89.9888 19.7946 C 89.0302 20.7532 87.9099 21.3238 86.6278 21.5063 L 91.8507 30.6514 L 88.3696 30.6514 L 83.1906 21.5663 Z " stroke-width="2.309952735900879"/>
      <path id="path3349" fill="#ffffff" stroke="none" d="M 106.9 12.4813 L 96.3019 12.4813 L 96.3019 17.025 L 106.9 17.025 L 106.9 20.0533 L 96.3019 20.0533 L 96.3019 27.623 L 106.9 27.623 L 106.9 30.6514 L 93.2759 30.6514 L 93.2759 9.4553 L 106.9 9.4553 L 106.9 12.4813 Z " stroke-width="2.309952735900879"/>
      <path id="path3351" fill="#ffffff" stroke="none" d="M 115.985 21.5663 L 111.4437 21.5663 L 111.4437 30.6514 L 108.4153 30.6514 L 108.4153 9.4553 L 115.985 9.4553 C 117.6598 9.4553 119.0896 10.0443 120.27 11.2247 C 121.4504 12.4074 122.0417 13.8349 122.0417 15.5096 C 122.0417 17.1867 121.4504 18.6142 120.27 19.7946 C 119.0896 20.975 117.6598 21.5663 115.985 21.5663 Z M 115.985 12.4813 L 111.4437 12.4813 L 111.4437 18.538 L 115.985 18.538 C 116.8235 18.538 117.535 18.2446 118.1194 17.6602 C 118.7154 17.0642 119.0134 16.3482 119.0134 15.5096 C 119.0134 14.6734 118.7154 13.962 118.1194 13.3753 C 117.535 12.7793 116.8235 12.4813 115.985 12.4813 Z " stroke-width="2.309952735900879"/>
      <path id="path3353" fill="#ffffff" stroke="none" d="M 123.5548 30.6514 L 123.5548 9.4553 L 126.5831 9.4553 L 126.5831 27.623 L 134.1528 27.623 L 134.1528 30.6514 L 123.5548 30.6514 Z " stroke-width="2.309952735900879"/>
      <path id="path3355" fill="#ffffff" stroke="none" d="M 139.997 27.623 L 138.9067 30.6514 L 135.6681 30.6514 L 143.2379 9.4553 L 150.8076 30.6514 L 147.5667 30.6514 L 146.4926 27.623 L 139.997 27.623 Z M 145.4023 24.5947 L 143.2379 18.538 L 141.0711 24.5947 L 145.4023 24.5947 Z " stroke-width="2.309952735900879"/>
      <path id="path3357" fill="#ffffff" stroke="none" d="M 158.3773 21.1113 L 152.3206 9.4553 L 155.5615 9.4553 L 159.8903 17.7803 L 164.2215 9.4553 L 167.4623 9.4553 L 161.4056 21.1113 L 161.4056 30.6514 L 158.3773 30.6514 L 158.3773 21.1113 Z " stroke-width="2.309952735900879"/>
    </g>
  </g>
</svg>