<svg xmlns="http://www.w3.org/2000/svg" xmlns:xlink="http://www.w3.org/1999/xlink" version="1.1" width="128.35917691182254" height="15.353279389849888" viewBox="0.015360098127729316 -0.5890398809868032 128.35917691182254 15.353279389849888">
  <!-- Exported by Scratch - http://scratch.mit.edu/ -->
  <g id="text4156">
    <path id="path4161" fill="#808080" stroke="none" stroke-width="1.7580798048889505" d="M 0.8944 7.1026 C 0.8944 5.2284 1.5572 3.6286 2.881 2.3048 C 4.2049 0.9809 5.8047 0.3181 7.6771 0.3181 C 9.5512 0.3181 11.151 0.9809 12.4749 2.3048 C 12.7069 2.5368 12.9214 2.7794 13.1148 3.0326 L 11.5642 4.1947 C 11.4288 4.0136 11.2758 3.8396 11.1088 3.6708 C 10.1595 2.7285 9.015 2.2573 7.6771 2.2573 C 6.3409 2.2573 5.1964 2.732 4.247 3.6813 C 3.3047 4.6237 2.8318 5.7647 2.8318 7.1026 C 2.8318 8.4387 3.3047 9.5832 4.247 10.5326 C 5.1964 11.4749 6.3409 11.9478 7.6771 11.9478 C 9.015 11.9478 10.1595 11.4749 11.1088 10.5326 C 11.2758 10.3638 11.4288 10.1897 11.5642 10.0087 L 13.1148 11.1725 C 12.9214 11.4239 12.7069 11.6665 12.4749 11.8986 C 11.151 13.2224 9.5512 13.8852 7.6771 13.8852 C 5.8047 13.8852 4.2049 13.2224 2.881 11.8986 C 1.5572 10.5748 0.8944 8.9749 0.8944 7.1026 Z "/>
    <path id="path4163" fill="#808080" stroke="none" stroke-width="1.7580798048889505" d="M 20.8187 0.3181 C 22.6928 0.3181 24.2909 0.9809 25.6147 2.3048 C 26.9403 3.6286 27.6014 5.2284 27.6014 7.1026 C 27.6014 8.9749 26.9403 10.5748 25.6147 11.8986 C 24.2909 13.2224 22.6928 13.8852 20.8187 13.8852 C 18.9446 13.8852 17.3465 13.2224 16.0209 11.8986 C 14.6971 10.5748 14.0343 8.9749 14.0343 7.1026 C 14.0343 5.2284 14.6971 3.6286 16.0209 2.3048 C 17.3465 0.9809 18.9446 0.3181 20.8187 0.3181 Z M 20.8187 2.2573 C 19.4808 2.2573 18.3381 2.732 17.3887 3.6813 C 16.4446 4.6237 15.9734 5.7647 15.9734 7.1026 C 15.9734 8.4387 16.4446 9.5832 17.3887 10.5326 C 18.3381 11.4749 19.4808 11.9478 20.8187 11.9478 C 22.1566 11.9478 23.2958 11.4749 24.2399 10.5326 C 25.1893 9.5832 25.664 8.4387 25.664 7.1026 C 25.664 5.7647 25.1893 4.6237 24.2399 3.6813 C 23.2958 2.732 22.1566 2.2573 20.8187 2.2573 Z "/>
    <path id="path4165" fill="#808080" stroke="none" stroke-width="1.7580798048889505" d="M 35.3264 13.7797 L 32.7385 6.5488 L 30.6059 13.8852 L 28.5718 13.8852 L 32.5064 0.3181 L 35.3457 8.4 L 38.185 0.3181 L 42.1196 13.8852 L 40.0837 13.8852 L 37.9512 6.5488 L 35.3651 13.7797 L 35.3651 13.8852 L 35.3457 13.8378 L 35.3264 13.8852 L 35.3264 13.7797 Z "/>
    <path id="path4167" fill="#808080" stroke="none" stroke-width="1.7580798048889505" d="M 45.045 0.3181 L 45.045 13.8852 L 43.1076 13.8852 L 43.1076 0.3181 L 45.045 0.3181 Z "/>
    <path id="path4169" fill="#808080" stroke="none" stroke-width="1.7580798048889505" d="M 46.0155 0.29 L 53.7669 8.8167 L 53.7669 0.3181 L 55.706 0.3181 L 55.706 10.9387 L 55.7447 10.9774 L 55.706 10.9774 L 55.706 13.8852 L 55.5707 13.6725 L 47.9529 5.3093 L 47.9529 13.8852 L 46.0155 13.8852 L 46.0155 0.29 Z "/>
    <path id="path4171" fill="#808080" stroke="none" stroke-width="1.7580798048889505" d="M 67.3445 4.1947 C 67.2092 4.0136 67.0562 3.8396 66.8892 3.6708 C 65.9398 2.7285 64.7953 2.2573 63.4574 2.2573 C 62.1213 2.2573 60.9768 2.732 60.0274 3.6813 C 59.0851 4.6237 58.6121 5.7647 58.6121 7.1026 C 58.6121 8.4387 59.0851 9.5832 60.0274 10.5326 C 60.9768 11.4749 62.1213 11.9478 63.4574 11.9478 C 64.7953 11.9478 65.9398 11.4731 66.8892 10.522 C 67.5924 9.8188 68.0355 9.0013 68.2165 8.0713 L 63.4574 8.0713 L 63.4574 6.1321 L 70.1838 6.1321 C 70.2225 6.4485 70.2418 6.772 70.2418 7.1026 C 70.2418 8.9749 69.579 10.5748 68.2552 11.8986 C 66.9314 13.2224 65.3315 13.8852 63.4574 13.8852 C 61.5851 13.8852 59.9852 13.2224 58.6614 11.8986 C 57.3375 10.5748 56.6747 8.9749 56.6747 7.1026 C 56.6747 5.2284 57.3375 3.6286 58.6614 2.3048 C 59.9852 0.9809 61.5851 0.3181 63.4574 0.3181 C 65.3315 0.3181 66.9314 0.9809 68.2552 2.3048 C 68.4873 2.5368 68.7 2.7794 68.8952 3.0326 L 67.3445 4.1947 Z "/>
    <path id="path4173" fill="#808080" stroke="none" stroke-width="1.7580798048889505" d="M 81.6289 6.6085 C 82.617 7.2028 83.3765 7.7935 83.9056 8.3807 C 84.4348 8.9696 84.7003 9.6025 84.7003 10.2812 C 84.7003 10.958 84.5192 11.5734 84.157 12.1219 C 83.7966 12.6651 83.3378 13.0941 82.7822 13.4105 C 82.2267 13.727 81.4637 13.8852 80.495 13.8852 C 79.5263 13.8852 78.7175 13.72 78.0723 13.3912 C 77.4254 13.0554 76.7801 12.5649 76.1332 11.9179 L 77.5484 10.4552 C 78.6595 11.2499 79.5966 11.714 80.3596 11.8511 C 81.1208 11.9795 81.7379 11.7949 82.2091 11.2973 C 82.682 10.7998 82.7488 10.3058 82.413 9.8153 C 82.0772 9.3248 81.5287 8.836 80.7657 8.3526 C 80.0097 7.8603 79.3258 7.4278 78.7123 7.0533 C 78.0969 6.6789 77.5801 6.2429 77.1616 5.7453 C 76.7415 5.2478 76.5059 4.6606 76.4531 3.982 C 76.4092 3.3033 76.5727 2.6757 76.9472 2.1008 C 77.3287 1.5207 77.8526 1.0741 78.5171 0.7647 C 79.1834 0.4482 79.9675 0.29 80.873 0.29 C 81.7836 0.29 82.5132 0.4342 83.0635 0.726 C 83.612 1.0161 84.2098 1.5171 84.855 2.2274 L 83.4011 3.7095 C 82.6064 2.7865 81.803 2.2889 80.989 2.2186 C 80.182 2.1465 79.5702 2.2977 79.1571 2.674 C 78.751 3.0414 78.5329 3.4229 78.5083 3.8167 C 78.482 4.2052 78.6121 4.5305 78.8951 4.796 C 79.1799 5.0544 79.4577 5.2742 79.7284 5.4552 C 80.0062 5.6293 80.6391 6.0125 81.6289 6.6085 Z "/>
    <path id="path4175" fill="#808080" stroke="none" stroke-width="1.7580798048889505" d="M 92.6081 0.3181 C 94.4822 0.3181 96.0803 0.9809 97.4042 2.3048 C 98.7298 3.6286 99.3908 5.2284 99.3908 7.1026 C 99.3908 8.9749 98.7298 10.5748 97.4042 11.8986 C 96.0803 13.2224 94.4822 13.8852 92.6081 13.8852 C 90.734 13.8852 89.1359 13.2224 87.8103 11.8986 C 86.4865 10.5748 85.8237 8.9749 85.8237 7.1026 C 85.8237 5.2284 86.4865 3.6286 87.8103 2.3048 C 89.1359 0.9809 90.734 0.3181 92.6081 0.3181 Z M 92.6081 2.2573 C 91.2702 2.2573 90.1275 2.732 89.1781 3.6813 C 88.234 4.6237 87.7629 5.7647 87.7629 7.1026 C 87.7629 8.4387 88.234 9.5832 89.1781 10.5326 C 90.1275 11.4749 91.2702 11.9478 92.6081 11.9478 C 93.946 11.9478 95.0853 11.4749 96.0294 10.5326 C 96.9787 9.5832 97.4534 8.4387 97.4534 7.1026 C 97.4534 5.7647 96.9787 4.6237 96.0294 3.6813 C 95.0853 2.732 93.946 2.2573 92.6081 2.2573 Z "/>
    <path id="path4177" fill="#808080" stroke="none" stroke-width="1.7580798048889505" d="M 107.1439 0.3181 C 109.0181 0.3181 110.6161 0.9809 111.9417 2.3048 C 113.2656 3.6286 113.9284 5.2284 113.9284 7.1026 C 113.9284 8.9749 113.2656 10.5748 111.9417 11.8986 C 110.6161 13.2224 109.0181 13.8852 107.1439 13.8852 C 105.2716 13.8852 103.6717 13.2224 102.3479 11.8986 C 101.0223 10.5748 100.3613 8.9749 100.3613 7.1026 C 100.3613 5.2284 101.0223 3.6286 102.3479 2.3048 C 103.6717 0.9809 105.2716 0.3181 107.1439 0.3181 Z M 107.1439 2.2573 C 105.8078 2.2573 104.6633 2.732 103.7139 3.6813 C 102.7698 4.6237 102.2987 5.7647 102.2987 7.1026 C 102.2987 8.4387 102.7698 9.5832 103.7139 10.5326 C 104.6633 11.4749 105.8078 11.9478 107.1439 11.9478 C 108.4818 11.9478 109.6211 11.4749 110.5652 10.5326 C 111.5145 9.5832 111.9892 8.4387 111.9892 7.1026 C 111.9892 5.7647 111.5145 4.6237 110.5652 3.6813 C 109.6211 2.732 108.4818 2.2573 107.1439 2.2573 Z "/>
    <path id="path4179" fill="#808080" stroke="none" stroke-width="1.7580798048889505" d="M 114.8971 0.29 L 122.6502 8.8167 L 122.6502 0.3181 L 124.5876 0.3181 L 124.5876 10.9387 L 124.6263 10.9774 L 124.5876 10.9774 L 124.5876 13.8852 L 124.4522 13.6725 L 116.8345 5.3093 L 116.8345 13.8852 L 114.8971 13.8852 L 114.8971 0.29 Z "/>
    <path id="path4181" fill="#808080" stroke="none" stroke-width="1.7580798048889505" d="M 125.5563 10.0087 L 125.5563 0.3181 L 127.4955 0.3181 L 127.4955 10.0087 L 125.5563 10.0087 Z M 127.4955 11.9478 L 127.4955 13.8852 L 125.5563 13.8852 L 125.5563 11.9478 L 127.4955 11.9478 Z "/>
  </g>
</svg>