<svg xmlns="http://www.w3.org/2000/svg" xmlns:xlink="http://www.w3.org/1999/xlink" version="1.1" width="12.161999702453613" height="18.36400032043457" viewBox="-0.3540000021457672 0.07300001382827759 12.161999702453613 18.36400032043457">
  <!-- Exported by Scratch - http://scratch.mit.edu/ -->
  <g id="ID0.10153980692848563">
    <g id="text3428">
      <path id="path3451" fill="#FFFFFF" stroke="none" stroke-width="1" d="M 0.146 12.182 C 0.154 7.75 2.221 3.881 6.347 0.573 L 8.827 2.409 C 6.206 3.666 4.598 5.286 4.003 7.271 C 4.706 6.94 5.28 6.774 5.727 6.774 C 7.265 6.774 8.579 7.32 9.671 8.412 C 10.762 9.503 11.308 10.818 11.308 12.356 C 11.308 13.893 10.762 15.208 9.671 16.299 C 8.579 17.391 7.265 17.937 5.727 17.937 C 4.189 17.937 2.874 17.391 1.783 16.299 C 0.691 15.208 0.146 13.893 0.146 12.356 L 0.146 12.182 Z M 2.862 11.128 C 2.771 11.491 2.692 11.859 2.626 12.231 L 2.626 12.356 C 2.626 13.215 2.928 13.947 3.532 14.551 C 4.135 15.154 4.867 15.456 5.727 15.456 C 6.587 15.456 7.318 15.154 7.922 14.551 C 8.526 13.947 8.827 13.215 8.827 12.356 C 8.827 11.496 8.526 10.764 7.922 10.16 C 7.318 9.557 6.587 9.255 5.727 9.255 C 4.867 9.255 4.135 9.557 3.532 10.16 C 3.234 10.458 3.011 10.78 2.862 11.128 Z "/>
    </g>
  </g>
</svg>