<svg xmlns:dc="http://purl.org/dc/elements/1.1/" xmlns:cc="http://creativecommons.org/ns#" xmlns:rdf="http://www.w3.org/1999/02/22-rdf-syntax-ns#" xmlns:svg="http://www.w3.org/2000/svg" xmlns="http://www.w3.org/2000/svg" xmlns:sodipodi="http://sodipodi.sourceforge.net/DTD/sodipodi-0.dtd" xmlns:inkscape="http://www.inkscape.org/namespaces/inkscape" version="1.0" width="81.74921417236328" height="47.035030364990234" id="svg2" inkscape:version="0.91pre2 r13516" viewBox="-0.49471048964187503 -0.4947098293341696 81.74921417236328 47.035030364990234" sodipodi:docname="Candy.svg" xml:space="preserve">
  <defs id="defs4">
    <pattern id="EMFhbasepattern" patternUnits="userSpaceOnUse" width="6" height="6" x="0" y="0"/>
  </defs>
  <g>
    <metadata id="metadata33">
      <rdf:RDF>
        <cc:Work rdf:about="">
          <dc:format>image/svg+xml</dc:format>
          <dc:type rdf:resource="http://purl.org/dc/dcmitype/StillImage"/>
          <dc:title/>
        </cc:Work>
      </rdf:RDF>
    </metadata>
    <sodipodi:namedview pagecolor="#ffffff" bordercolor="#666666" borderopacity="1" objecttolerance="10" gridtolerance="10" guidetolerance="10" inkscape:pageopacity="0" inkscape:pageshadow="2" inkscape:window-width="1920" inkscape:window-height="1017" id="namedview31" inkscape:document-units="mm" showgrid="false" inkscape:zoom="1.0003693" inkscape:cx="143.94685" inkscape:cy="82.683066" inkscape:window-x="-8" inkscape:window-y="-8" inkscape:window-maximized="1" inkscape:current-layer="svg2"/>
    <path style="fill:#ffa200;fill-opacity:1;fill-rule:evenodd;stroke:none" d="M 80.754504,13.680412 76.215523,24.393003 57.25019,25.297639 58.239661,20.869741 80.754504,13.680412 Z" id="path7" inkscape:connector-curvature="0" stroke-width="1"/>
    <path style="fill:#ffa200;fill-opacity:1;fill-rule:evenodd;stroke:none" d="M 5.1314768,0.00529017 5.4594755,11.638393 22.784788,19.388498 23.48309,14.907712 5.1314768,0.00529017 Z" id="path9" inkscape:connector-curvature="0" stroke-width="1"/>
    <path style="fill:#fdc800;fill-opacity:1;fill-rule:evenodd;stroke:none" d="M 1.6981474,18.912389 21.774376,20.018023 22.239901,18.901806 5.4383088,11.617227 1.6981474,18.912389 Z" id="path11" inkscape:connector-curvature="0" stroke-width="1"/>
    <path style="fill:#fdc800;fill-opacity:1;fill-rule:evenodd;stroke:none" d="M 75.956443,32.328274 57.541161,27.075131 57.646994,25.213 76.205081,24.408893 75.956443,32.328274 Z" id="path13" inkscape:connector-curvature="0" stroke-width="1"/>
    <path style="fill:#ffa200;fill-opacity:1;fill-rule:evenodd;stroke:none" d="m 1.4283486,18.690195 1.4230548,6.311195 17.4893396,-1.899186 0.86758,-3.121209 -19.7799744,-1.2908 z" id="path15" inkscape:connector-curvature="0" stroke-width="1"/>
    <path style="fill:#ffa200;fill-opacity:1;fill-rule:evenodd;stroke:none" d="m 75.951081,32.317832 -3.152987,6.178691 -15.828151,-8.104576 0.25908,-3.438482 18.722058,5.364367 z" id="path17" inkscape:connector-curvature="0" stroke-width="1"/>
    <path style="fill:#fdc800;fill-opacity:1;fill-rule:evenodd;stroke:none" d="M 2.8196647,24.932612 0.00528951,33.031854 C 7.4644386,30.080092 16.70637,27.66235 24.165532,24.710419 L 22.996398,22.784788 2.8196647,24.932612 Z" id="path19" inkscape:connector-curvature="0" stroke-width="1"/>
    <path style="fill:#fdc800;fill-opacity:1;fill-rule:evenodd;stroke:none" d="m 72.766486,38.464914 0.153246,7.575409 C 66.952425,40.68685 58.39827,36.460008 52.430963,31.106252 l 2.295878,-1.867465 18.039645,9.226127 z" id="path21" inkscape:connector-curvature="0" stroke-width="1"/>
    <path style="fill:#ff6c00;fill-opacity:1;fill-rule:evenodd;stroke:none" d="m 18.462724,23.366731 c 0,-11.305117 9.167876,-20.467716 20.472936,-20.467716 11.305258,0 20.472965,9.162599 20.472965,20.467716 0,11.310479 -9.167707,20.473106 -20.472965,20.473106 -11.30506,0 -20.472936,-9.162627 -20.472936,-20.473106 z" id="path23" inkscape:connector-curvature="0" stroke-width="1"/>
    <path style="fill:#ffffff;fill-opacity:1;fill-rule:evenodd;stroke:none" d="m 48.304592,16.627038 c 0,-0.957524 0.777804,-1.735187 1.735102,-1.735187 0.95758,0 1.730022,0.777663 1.730022,1.735187 0,0.957524 -0.772442,1.735159 -1.730022,1.735159 -0.957298,0 -1.735102,-0.777635 -1.735102,-1.735159 z" id="path25" inkscape:connector-curvature="0" stroke-width="1"/>
    <path style="fill:#ff8207;fill-opacity:1;fill-rule:evenodd;stroke:none" d="M 18.605556,22.065347 C 18.854194,12.437223 24.795057,7.5914111 29.968896,4.8775339 35.142594,2.1689738 42.882256,1.9520747 49.632447,5.8033357 48.124816,14.791352 44.511525,19.229804 39.343189,21.938376 34.169209,24.652225 27.821043,27.05927 18.605556,22.065347 Z" id="path27" inkscape:connector-curvature="0" stroke-width="1"/>
    <path style="fill:#ffffff;fill-opacity:1;fill-rule:evenodd;stroke:none" d="m 42.395423,11.384478 c 0,-1.936214 1.566051,-3.502124 3.502095,-3.502124 1.936327,0 3.507458,1.56591 3.507458,3.502124 0,1.936185 -1.571131,3.507373 -3.507458,3.507373 -1.936044,0 -3.502095,-1.571188 -3.502095,-3.507373 z" id="path29" inkscape:connector-curvature="0" stroke-width="1"/>
  </g>
</svg>