<svg xmlns="http://www.w3.org/2000/svg" xmlns:xlink="http://www.w3.org/1999/xlink" version="1.1" width="57" height="71" viewBox="-0.4619999974966049 -0.5120000010356307 57 71">
  <!-- Exported by Scratch - http://scratch.mit.edu/ -->
  <path id="path3088" fill="#ebebeb" stroke="none" d="M 14.038 -0.012 C 10.136 -0.012 6.829 1.347 4.131 4.081 C 1.397 6.816 0.038 10.123 0.038 13.988 L 0.038 27.988 C 0.038 29.92 0.689 31.571 2.038 32.956 C 3.423 34.305 5.105 34.988 7.038 34.988 C 5.105 34.988 3.423 35.665 2.038 37.05 C 0.689 38.435 0.038 40.092 0.038 41.988 L 0.038 55.988 C 0.038 59.889 1.397 63.191 4.131 65.925 C 6.829 68.623 10.136 69.988 14.038 69.988 L 42.038 69.988 C 45.902 69.988 49.183 68.623 51.881 65.925 C 54.652 63.191 56.037 59.889 56.038 55.988 L 56.038 41.988 C 56.037 40.092 55.329 38.435 53.944 37.05 C 52.558 35.665 50.933 34.988 49.038 34.988 C 50.933 34.988 52.558 34.305 53.944 32.956 C 55.329 31.571 56.037 29.92 56.038 27.988 L 56.038 13.988 C 56.037 10.123 54.647 6.842 51.913 4.144 C 49.178 1.373 45.902 -0.012 42.038 -0.012 L 14.038 -0.012 Z M 21.038 13.988 L 35.038 13.988 C 36.933 13.988 38.558 14.665 39.944 16.05 C 41.329 17.435 42.037 19.092 42.038 20.988 C 42.037 22.92 41.329 24.571 39.944 25.956 C 38.558 27.305 36.933 27.988 35.038 27.988 L 21.038 27.988 C 19.105 27.988 17.423 27.305 16.038 25.956 C 14.689 24.571 14.037 22.92 14.038 20.988 C 14.037 19.092 14.689 17.435 16.038 16.05 C 17.423 14.665 19.105 13.988 21.038 13.988 Z M 21.038 41.988 L 35.038 41.988 C 36.933 41.988 38.558 42.665 39.944 44.05 C 41.329 45.435 42.037 47.092 42.038 48.988 C 42.037 50.92 41.329 52.571 39.944 53.956 C 38.558 55.305 36.933 55.988 35.038 55.988 L 21.038 55.988 C 19.105 55.988 17.423 55.305 16.038 53.956 C 14.689 52.571 14.037 50.92 14.038 48.988 C 14.037 47.092 14.689 45.435 16.038 44.05 C 17.423 42.665 19.105 41.988 21.038 41.988 Z " stroke-width="1"/>
</svg>