<svg xmlns="http://www.w3.org/2000/svg" xmlns:xlink="http://www.w3.org/1999/xlink" version="1.1" width="57" height="71" viewBox="-0.38099999725818634 -0.4309999942779541 57 71">
  <!-- Exported by Scratch - http://scratch.mit.edu/ -->
  <path id="path3097" fill="#ebebeb" stroke="none" d="M 7.119 0.069 C 5.186 0.069 3.535 0.746 2.15 2.131 C 0.801 3.517 0.119 5.173 0.119 7.069 L 0.119 28.069 C 0.119 31.97 1.452 35.277 4.15 37.975 C 6.884 40.709 10.218 42.069 14.119 42.069 L 42.119 42.069 L 42.119 63.069 C 42.119 65.001 42.801 66.652 44.15 68.038 C 45.535 69.386 47.186 70.069 49.119 70.069 C 51.015 70.069 52.64 69.386 54.025 68.038 C 55.41 66.652 56.119 65.001 56.119 63.069 L 56.119 7.069 C 56.119 5.173 55.41 3.517 54.025 2.131 C 52.64 0.746 51.015 0.069 49.119 0.069 C 47.186 0.069 45.535 0.746 44.15 2.131 C 42.801 3.517 42.119 5.173 42.119 7.069 L 42.119 28.069 L 21.119 28.069 C 19.186 28.069 17.535 27.386 16.15 26.038 C 14.801 24.652 14.119 23.001 14.119 21.069 L 14.119 7.069 C 14.119 5.173 13.41 3.517 12.025 2.131 C 10.64 0.746 9.015 0.069 7.119 0.069 Z " stroke-width="1"/>
</svg>