<svg xmlns:dc="http://purl.org/dc/elements/1.1/" xmlns:cc="http://creativecommons.org/ns#" xmlns:rdf="http://www.w3.org/1999/02/22-rdf-syntax-ns#" xmlns:svg="http://www.w3.org/2000/svg" xmlns="http://www.w3.org/2000/svg" xmlns:sodipodi="http://sodipodi.sourceforge.net/DTD/sodipodi-0.dtd" xmlns:inkscape="http://www.inkscape.org/namespaces/inkscape" version="1.0" width="97.1279296875" height="63.68854904174805" id="svg2" inkscape:version="0.91pre2 r13516" viewBox="-0.4629688262939453 -0.4841299057006836 97.1279296875 63.68854904174805" sodipodi:docname="SPIKEBIRDX.svg" xml:space="preserve">
  <defs id="defs4">
    <pattern id="EMFhbasepattern" patternUnits="userSpaceOnUse" width="6" height="6" x="0" y="0"/>
  </defs>
  <g>
    <metadata id="metadata25">
      <rdf:RDF>
        <cc:Work rdf:about="">
          <dc:format>image/svg+xml</dc:format>
          <dc:type rdf:resource="http://purl.org/dc/dcmitype/StillImage"/>
          <dc:title/>
        </cc:Work>
      </rdf:RDF>
    </metadata>
    <sodipodi:namedview pagecolor="#ffffff" bordercolor="#666666" borderopacity="1" objecttolerance="10" gridtolerance="10" guidetolerance="10" inkscape:pageopacity="0" inkscape:pageshadow="2" inkscape:window-width="640" inkscape:window-height="480" id="namedview23" inkscape:document-units="mm" showgrid="false" inkscape:zoom="0.84394148" inkscape:cx="170.62794" inkscape:cy="111.72047" inkscape:window-x="0" inkscape:window-y="0" inkscape:window-maximized="0" inkscape:current-layer="svg2"/>
    <path style="fill:#4c4c4c;fill-opacity:1;fill-rule:evenodd;stroke:none" d="m 17.039675,12.781082 c 0,-7.0518302 5.713392,-12.76521203 12.76525,-12.76521203 l 36.010145,0 c 7.051887,0 12.770556,5.71338183 12.770556,12.76521203 l 0,37.158141 c 0,7.051887 -5.718669,12.765194 -12.770556,12.765194 l -36.010145,0 c -7.051858,0 -12.76525,-5.713307 -12.76525,-12.765194 z" id="path7" inkscape:connector-curvature="0" stroke-width="1"/>
    <path style="fill:#3c3c3c;fill-opacity:1;fill-rule:evenodd;stroke:none" d="m 66.407737,62.704417 -37.190116,0 c -6.729081,0 -12.177946,-5.448865 -12.177946,-12.172527 l 0,-18.452254 61.545951,0 0,18.452254 c 0,6.723662 -5.454226,12.172527 -12.177889,12.172527 z" id="path9" inkscape:connector-curvature="0" stroke-width="1"/>
    <path style="fill:#0d0d0d;fill-opacity:1;fill-rule:evenodd;stroke:none" d="m 28.805012,32.079636 0,-26.0382464 26.038387,26.0382464 z" id="path11" inkscape:connector-curvature="0" stroke-width="1"/>
    <path style="fill:#4c4c4c;fill-opacity:1;fill-rule:evenodd;stroke:none" d="m 28.805012,19.309165 -28.76798077,0 28.76798077,28.476984 z" id="path13" inkscape:connector-curvature="0" stroke-width="1"/>
    <path style="fill:#ffc600;fill-opacity:1;fill-rule:evenodd;stroke:none" d="m 78.590989,14.505658 0,17.573978 17.573978,-17.573978 z" id="path15" inkscape:connector-curvature="0" stroke-width="1"/>
    <path style="fill:#eaab00;fill-opacity:1;fill-rule:evenodd;stroke:none" d="m 78.590989,49.653614 17.573978,0 -17.573978,-17.573978 z" id="path17" inkscape:connector-curvature="0" stroke-width="1"/>
    <path style="fill:#ffffff;fill-opacity:1;fill-rule:evenodd;stroke:none" d="M 51.986463,29.02204 C 49.722477,26.784187 49.70131,23.128647 51.93905,20.859185 L 63.720135,8.9404045 c 2.23774,-2.2642125 5.898727,-2.2853509 8.162713,-0.047611 l 0,0 c 2.269632,2.2430174 2.290798,5.8985574 0.0477,8.1680194 L 60.154539,28.974345 c -2.24282,2.269349 -5.898444,2.290515 -8.168076,0.0477 z" id="path19" inkscape:connector-curvature="0" stroke-width="1"/>
    <path style="fill:#ffffff;fill-opacity:1;fill-rule:evenodd;stroke:none" d="M 51.986463,8.8927936 C 49.722477,11.135811 49.70131,14.791351 51.93905,17.060813 l 11.781085,11.913532 c 2.23774,2.269349 5.898727,2.290515 8.162713,0.0477 l 0,0 c 2.269632,-2.237853 2.290798,-5.893393 0.0477,-8.162855 L 60.154539,8.9404045 C 57.911719,6.676192 54.256095,6.6550536 51.986463,8.8927936 Z" id="path21" inkscape:connector-curvature="0" stroke-width="1"/>
  </g>
</svg>