<svg xmlns="http://www.w3.org/2000/svg" xmlns:xlink="http://www.w3.org/1999/xlink" version="1.1" width="178.20480859279633" height="49.577813506126404" viewBox="-0.6009581983089447 -0.6538581997156143 178.20480859279633 49.577813506126404">
  <!-- Exported by Scratch - http://scratch.mit.edu/ -->
  <g id="ID0.16000725561752915">
    <g id="text7">
      <path id="path3360" fill="#808080" stroke="none" d="M 3.1758 18.0538 L 7.6423 18.0538 C 9.6971 18.0538 11.4479 17.3305 12.8961 15.8806 C 14.3556 14.4227 15.0854 12.6656 15.0854 10.6124 C 15.0854 8.5576 14.3556 6.8052 12.8961 5.3569 C 11.4479 3.899 9.6971 3.1693 7.6423 3.1693 L 3.1758 3.1693 L 3.1758 18.0538 Z M 0.1992 0.1911 L 7.6423 0.1911 C 10.5197 0.1911 12.9762 1.2089 15.0102 3.2429 C 17.0458 5.2769 18.062 7.7334 18.062 10.6124 C 18.062 13.4897 17.0458 15.9462 15.0102 17.9802 C 12.9762 20.0142 10.5197 21.032 7.6423 21.032 L 0.1992 21.032 L 0.1992 0.1911 Z " stroke-width="1.6003164052963257"/>
      <path id="path3362" fill="#808080" stroke="none" d="M 29.9715 0.1911 C 32.8489 0.1911 35.3054 1.2089 37.3394 3.2429 C 39.3734 5.2769 40.3912 7.7334 40.3912 10.6124 C 40.3912 13.4897 39.3734 15.9462 37.3394 17.9802 C 35.3054 20.0142 32.8489 21.032 29.9715 21.032 C 27.0925 21.032 24.6361 20.0142 22.6021 17.9802 C 20.5681 15.9462 19.5503 13.4897 19.5503 10.6124 C 19.5503 7.7334 20.5681 5.2769 22.6021 3.2429 C 24.6361 1.2089 27.0925 0.1911 29.9715 0.1911 Z M 29.9715 3.1693 C 27.9167 3.1693 26.1596 3.899 24.7017 5.3569 C 23.2518 6.8052 22.5284 8.5576 22.5284 10.6124 C 22.5284 12.6656 23.2518 14.4227 24.7017 15.8806 C 26.1596 17.3305 27.9167 18.0538 29.9715 18.0538 C 32.0247 18.0538 33.7771 17.3305 35.2254 15.8806 C 36.6848 14.4227 37.413 12.6656 37.413 10.6124 C 37.413 8.5576 36.6848 6.8052 35.2254 5.3569 C 33.7771 3.899 32.0247 3.1693 29.9715 3.1693 Z " stroke-width="1.6003164052963257"/>
      <path id="path3364" fill="#808080" stroke="none" d="M 41.8795 0.1463 L 53.7874 13.2465 L 53.7874 0.1911 L 56.7656 0.1911 L 56.7656 16.5063 L 56.8248 16.5655 L 56.7656 16.5655 L 56.7656 21.032 L 56.5576 20.704 L 44.8561 7.8582 L 44.8561 21.032 L 41.8795 21.032 L 41.8795 0.1463 Z " stroke-width="1.6003164052963257"/>
      <path id="path3366" fill="#808080" stroke="none" d="M 59.7422 3.1693 L 58.2539 3.1693 L 58.2539 0.1911 L 61.2305 0.1911 L 61.2305 3.1693 C 61.2305 5.1537 60.2383 6.1459 58.2539 6.1459 L 58.2539 4.6576 C 59.2461 4.6576 59.7422 4.1615 59.7422 3.1693 Z " stroke-width="1.6003164052963257"/>
      <path id="path3368" fill="#808080" stroke="none" d="M 68.6736 3.1693 L 62.7188 3.1693 L 62.7188 0.1911 L 77.6049 0.1911 L 77.6049 3.1693 L 71.6518 3.1693 L 71.6518 21.032 L 68.6736 21.032 L 68.6736 3.1693 Z " stroke-width="1.6003164052963257"/>
      <path id="path3370" fill="#808080" stroke="none" d="M 92.6095 3.1693 L 86.6563 3.1693 L 86.6563 0.1911 L 101.5409 0.1911 L 101.5409 3.1693 L 95.5877 3.1693 L 95.5877 21.032 L 92.6095 21.032 L 92.6095 3.1693 Z " stroke-width="1.6003164052963257"/>
      <path id="path3372" fill="#808080" stroke="none" d="M 113.4504 0.1911 C 116.3278 0.1911 118.7843 1.2089 120.8183 3.2429 C 122.8523 5.2769 123.8701 7.7334 123.8701 10.6124 C 123.8701 13.4897 122.8523 15.9462 120.8183 17.9802 C 118.7843 20.0142 116.3278 21.032 113.4504 21.032 C 110.5731 21.032 108.1166 20.0142 106.081 17.9802 C 104.047 15.9462 103.0308 13.4897 103.0308 10.6124 C 103.0308 7.7334 104.047 5.2769 106.081 3.2429 C 108.1166 1.2089 110.5731 0.1911 113.4504 0.1911 Z M 113.4504 3.1693 C 111.3956 3.1693 109.6401 3.899 108.1806 5.3569 C 106.7323 6.8052 106.0073 8.5576 106.0073 10.6124 C 106.0073 12.6656 106.7323 14.4227 108.1806 15.8806 C 109.6401 17.3305 111.3956 18.0538 113.4504 18.0538 C 115.5036 18.0538 117.256 17.3305 118.7043 15.8806 C 120.1637 14.4227 120.8935 12.6656 120.8935 10.6124 C 120.8935 8.5576 120.1637 6.8052 118.7043 5.3569 C 117.256 3.899 115.5036 3.1693 113.4504 3.1693 Z " stroke-width="1.6003164052963257"/>
      <path id="path3374" fill="#808080" stroke="none" d="M 125.3584 13.589 L 125.3584 0.1911 L 128.3366 0.1911 L 128.3366 13.589 C 128.3366 14.8196 128.7718 15.871 129.6456 16.7448 C 130.5194 17.6186 131.5708 18.0538 132.8014 18.0538 C 134.0321 18.0538 135.0835 17.6186 135.9573 16.7448 C 136.831 15.871 137.2679 14.8196 137.2679 13.589 L 137.2679 0.1911 L 140.2445 0.1911 L 140.2445 13.589 C 140.2445 15.6438 139.5148 17.3993 138.0569 18.8588 C 136.607 20.3071 134.8563 21.032 132.8014 21.032 C 130.7466 21.032 128.9911 20.3071 127.5316 18.8588 C 126.0833 17.3993 125.3584 15.6438 125.3584 13.589 Z " stroke-width="1.6003164052963257"/>
      <path id="path3376" fill="#808080" stroke="none" d="M 141.7328 10.6124 C 141.7328 7.7334 142.7506 5.2769 144.7846 3.2429 C 146.8186 1.2089 149.2751 0.1911 152.1525 0.1911 C 155.0314 0.1911 157.4879 1.2089 159.5219 3.2429 C 159.8788 3.5998 160.2069 3.9727 160.5045 4.3599 L 158.1217 6.1459 C 157.9136 5.8674 157.68 5.6002 157.4223 5.3425 C 155.9644 3.8926 154.2073 3.1693 152.1525 3.1693 C 150.0993 3.1693 148.3421 3.899 146.8842 5.3569 C 145.4343 6.8052 144.711 8.5576 144.711 10.6124 C 144.711 12.6656 145.4343 14.4227 146.8842 15.8806 C 148.3421 17.3305 150.0993 18.0538 152.1525 18.0538 C 154.2073 18.0538 155.9644 17.3305 157.4223 15.8806 C 157.68 15.623 157.9136 15.3557 158.1217 15.0773 L 160.5045 16.8632 C 160.2069 17.2505 159.8788 17.6234 159.5219 17.9802 C 157.4879 20.0142 155.0314 21.032 152.1525 21.032 C 149.2751 21.032 146.8186 20.0142 144.7846 17.9802 C 142.7506 15.9462 141.7328 13.4897 141.7328 10.6124 Z " stroke-width="1.6003164052963257"/>
      <path id="path3378" fill="#808080" stroke="none" d="M 164.8958 10.6124 L 164.8958 21.032 L 161.9176 21.032 L 161.9176 0.1911 L 164.8958 0.1911 L 164.8958 7.6342 L 173.8272 7.6342 L 173.8272 0.1911 L 176.8037 0.1911 L 176.8037 21.032 L 173.8272 21.032 L 173.8272 10.6124 L 164.8958 10.6124 Z " stroke-width="1.6003164052963257"/>
    </g>
    <g id="text13">
      <path id="path3341" fill="#808080" stroke="none" d="M 27.243 30.2595 L 21.2898 30.2595 L 21.2898 27.2829 L 36.1743 27.2829 L 36.1743 30.2595 L 30.2212 30.2595 L 30.2212 48.1238 L 27.243 48.1238 L 27.243 30.2595 Z " stroke-width="1.6003164052963257"/>
      <path id="path3343" fill="#808080" stroke="none" d="M 40.6408 37.7025 L 40.6408 48.1238 L 37.6626 48.1238 L 37.6626 27.2829 L 40.6408 27.2829 L 40.6408 34.7259 L 49.5722 34.7259 L 49.5722 27.2829 L 52.5488 27.2829 L 52.5488 48.1238 L 49.5722 48.1238 L 49.5722 37.7025 L 40.6408 37.7025 Z " stroke-width="1.6003164052963257"/>
      <path id="path3345" fill="#808080" stroke="none" d="M 67.4349 30.2595 L 57.0153 30.2595 L 57.0153 34.7259 L 67.4349 34.7259 L 67.4349 37.7025 L 57.0153 37.7025 L 57.0153 45.1456 L 67.4349 45.1456 L 67.4349 48.1238 L 54.0371 48.1238 L 54.0371 27.2829 L 67.4349 27.2829 L 67.4349 30.2595 Z " stroke-width="1.6003164052963257"/>
      <path id="path3347" fill="#808080" stroke="none" d="M 84.9264 36.944 C 86.4435 37.8562 87.6101 38.7651 88.4231 39.6677 C 89.2376 40.5703 89.6441 41.5433 89.6441 42.5851 C 89.6441 43.6269 89.3673 44.5711 88.8103 45.4144 C 88.255 46.2482 87.5509 46.9075 86.6963 47.394 C 85.8434 47.8805 84.6719 48.1238 83.1836 48.1238 C 81.6953 48.1238 80.4551 47.8693 79.4629 47.3636 C 78.4707 46.8483 77.4785 46.093 76.4847 45.1008 L 78.6595 42.8539 C 80.3655 44.0734 81.8042 44.7887 82.9756 44.9968 C 84.147 45.1952 85.0944 44.9119 85.8194 44.1486 C 86.5427 43.3836 86.6467 42.6251 86.1314 41.8713 C 85.6161 41.1176 84.7711 40.3671 83.6013 39.6229 C 82.4395 38.8692 81.3881 38.2034 80.4455 37.6289 C 79.5029 37.0528 78.7092 36.3839 78.0626 35.6189 C 77.4177 34.8556 77.056 33.9514 76.976 32.9096 C 76.9072 31.8678 77.16 30.906 77.7362 30.0226 C 78.3219 29.128 79.1252 28.4447 80.1478 27.9678 C 81.1688 27.4813 82.3755 27.2381 83.7645 27.2381 C 85.1632 27.2381 86.285 27.4621 87.1284 27.9086 C 87.9718 28.3551 88.8904 29.1232 89.8826 30.2162 L 87.6501 32.4935 C 86.4291 31.074 85.1936 30.3091 83.9438 30.2002 C 82.7019 30.0914 81.7642 30.3251 81.1304 30.8996 C 80.5047 31.4661 80.1718 32.0518 80.1318 32.6567 C 80.0934 33.252 80.2919 33.7529 80.7271 34.1594 C 81.164 34.5579 81.5913 34.894 82.0074 35.1724 C 82.4347 35.4397 83.4077 36.0302 84.9264 36.944 Z " stroke-width="1.6003164052963257"/>
      <path id="path3349" fill="#808080" stroke="none" d="M 98.8139 39.1908 L 94.349 39.1908 L 94.349 48.1238 L 91.3709 48.1238 L 91.3709 27.2829 L 98.8139 27.2829 C 100.4607 27.2829 101.8657 27.8638 103.026 29.024 C 104.1878 30.1858 104.7687 31.5893 104.7687 33.2376 C 104.7687 34.8844 104.1878 36.2894 103.026 37.4497 C 101.8657 38.6115 100.4607 39.1908 98.8139 39.1908 Z M 98.8139 30.2595 L 94.349 30.2595 L 94.349 36.2142 L 98.8139 36.2142 C 99.6381 36.2142 100.3374 35.9262 100.9135 35.3517 C 101.4993 34.7659 101.7905 34.0602 101.7905 33.2376 C 101.7905 32.4135 101.4993 31.7141 100.9135 31.138 C 100.3374 30.5523 99.6381 30.2595 98.8139 30.2595 Z " stroke-width="1.6003164052963257"/>
      <path id="path3351" fill="#808080" stroke="none" d="M 109.2336 27.2829 L 109.2336 48.1238 L 106.257 48.1238 L 106.257 27.2829 L 109.2336 27.2829 Z " stroke-width="1.6003164052963257"/>
      <path id="path3353" fill="#808080" stroke="none" d="M 110.7235 27.2829 L 113.7001 27.2829 L 113.7001 37.048 L 121.7673 27.2829 L 125.624 27.2829 L 118.5522 35.8574 L 125.5488 48.1238 L 122.1257 48.1238 L 116.5278 38.3138 L 113.7001 41.7369 L 113.7001 48.1238 L 110.7235 48.1238 L 110.7235 27.2829 Z " stroke-width="1.6003164052963257"/>
      <path id="path3355" fill="#808080" stroke="none" d="M 140.4942 30.2595 L 130.0745 30.2595 L 130.0745 34.7259 L 140.4942 34.7259 L 140.4942 37.7025 L 130.0745 37.7025 L 130.0745 45.1456 L 140.4942 45.1456 L 140.4942 48.1238 L 127.0963 48.1238 L 127.0963 27.2829 L 140.4942 27.2829 L 140.4942 30.2595 Z " stroke-width="1.6003164052963257"/>
      <path id="path3357" fill="#808080" stroke="none" d="M 150.4225 36.944 C 151.9412 37.8562 153.1079 38.7651 153.9208 39.6677 C 154.7354 40.5703 155.1419 41.5433 155.1419 42.5851 C 155.1419 43.6269 154.8634 44.5711 154.3081 45.4144 C 153.7528 46.2482 153.0486 46.9075 152.1941 47.394 C 151.3411 47.8805 150.1697 48.1238 148.6814 48.1238 C 147.1931 48.1238 145.9528 47.8693 144.9606 47.3636 C 143.9669 46.8483 142.9747 46.093 141.9825 45.1008 L 144.1557 42.8539 C 145.8632 44.0734 147.3019 44.7887 148.4733 44.9968 C 149.6448 45.1952 150.5922 44.9119 151.3155 44.1486 C 152.0404 43.3836 152.1445 42.6251 151.6292 41.8713 C 151.1123 41.1176 150.2689 40.3671 149.0975 39.6229 C 147.9372 38.8692 146.8858 38.2034 145.9416 37.6289 C 144.9991 37.0528 144.2053 36.3839 143.5604 35.6189 C 142.9154 34.8556 142.5538 33.9514 142.4738 32.9096 C 142.4049 31.8678 142.6578 30.906 143.2339 30.0226 C 143.818 29.128 144.623 28.4447 145.644 27.9678 C 146.6666 27.4813 147.8732 27.2381 149.2623 27.2381 C 150.661 27.2381 151.7828 27.4621 152.6262 27.9086 C 153.4695 28.3551 154.3881 29.1232 155.3803 30.2162 L 153.1479 32.4935 C 151.9268 31.074 150.6914 30.3091 149.4399 30.2002 C 148.1997 30.0914 147.2619 30.3251 146.6266 30.8996 C 146.0025 31.4661 145.6696 32.0518 145.6296 32.6567 C 145.5896 33.252 145.788 33.7529 146.2249 34.1594 C 146.6618 34.5579 147.0891 34.894 147.5052 35.1724 C 147.9324 35.4397 148.9054 36.0302 150.4225 36.944 Z " stroke-width="1.6003164052963257"/>
    </g>
  </g>
</svg>