<svg xmlns="http://www.w3.org/2000/svg" xmlns:xlink="http://www.w3.org/1999/xlink" version="1.1" width="248.37089228630066" height="42.425095319747925" viewBox="-1.0875476002693176 -0.5310476422309875 248.37089228630066 42.425095319747925">
  <!-- Exported by Scratch - http://scratch.mit.edu/ -->
  <g id="ID0.11884860461577773">
    <path id="path7" fill="#ff3464" stroke="none" d="M 0.0744 9.3827 C 0.0744 4.5653 3.9832 0.6309 8.8262 0.6309 L 237.3696 0.6309 C 242.2126 0.6309 246.1214 4.5653 246.1214 9.3827 L 246.1214 31.9803 C 246.1214 36.7977 242.2126 40.7321 237.3696 40.7321 L 8.8262 40.7321 C 3.9832 40.7321 0.0744 36.7977 0.0744 31.9803 Z " stroke-width="2.323895215988159"/>
    <g id="text9">
      <path id="path4147" fill="#ffffff" stroke="none" d="M 95.282 19.9472 C 96.8344 20.8814 98.0289 21.8109 98.8608 22.7358 C 99.6928 23.6584 100.1088 24.6554 100.1088 25.7197 C 100.1088 26.7864 99.8252 27.7508 99.2559 28.6153 C 98.6889 29.4682 97.9661 30.1421 97.0947 30.6394 C 96.2209 31.139 95.0218 31.3877 93.4996 31.3877 C 91.9751 31.3877 90.7063 31.1274 89.6907 30.6092 C 88.6752 30.0817 87.6597 29.3101 86.6441 28.2946 L 88.8681 25.9939 C 90.6156 27.2442 92.0867 27.9739 93.2858 28.1877 C 94.4849 28.3922 95.454 28.1017 96.1953 27.3209 C 96.9366 26.5377 97.0435 25.7615 96.516 24.99 C 95.9862 24.2185 95.124 23.4516 93.9249 22.6894 C 92.7374 21.9178 91.6614 21.2369 90.697 20.649 C 89.7326 20.0587 88.9192 19.3732 88.2592 18.5923 C 87.5992 17.8115 87.2297 16.8866 87.1484 15.8199 C 87.0764 14.7533 87.3343 13.7679 87.9246 12.8663 C 88.5241 11.9506 89.3468 11.2511 90.3926 10.7631 C 91.4383 10.2658 92.6723 10.0172 94.0922 10.0172 C 95.5237 10.0172 96.6717 10.2449 97.5362 10.7027 C 98.3984 11.1605 99.3372 11.946 100.3528 13.0638 L 98.0684 15.3947 C 96.8204 13.9422 95.5562 13.1591 94.2758 13.0475 C 93.0069 12.936 92.0472 13.1753 91.3965 13.7633 C 90.7574 14.3419 90.4181 14.9415 90.3763 15.562 C 90.3368 16.1708 90.539 16.6844 90.9851 17.1004 C 91.4337 17.5047 91.8682 17.851 92.2958 18.1345 C 92.7327 18.4087 93.7273 19.013 95.282 19.9472 Z " stroke-width="2.323895215988159"/>
      <path id="path4149" fill="#ffffff" stroke="none" d="M 104.9215 20.7257 L 104.9215 31.3877 L 101.8772 31.3877 L 101.8772 10.0636 L 104.9215 10.0636 L 104.9215 17.679 L 114.0614 17.679 L 114.0614 10.0636 L 117.1081 10.0636 L 117.1081 31.3877 L 114.0614 31.3877 L 114.0614 20.7257 L 104.9215 20.7257 Z " stroke-width="2.323895215988159"/>
      <path id="path4151" fill="#ffffff" stroke="none" d="M 122.9875 28.3411 L 121.8906 31.3877 L 118.6302 31.3877 L 126.2456 10.0636 L 133.8633 31.3877 L 130.6029 31.3877 L 129.5223 28.3411 L 122.9875 28.3411 Z M 128.4254 25.2944 L 126.2456 19.2012 L 124.0681 25.2944 L 128.4254 25.2944 Z " stroke-width="2.323895215988159"/>
      <path id="path4153" fill="#ffffff" stroke="none" d="M 143.0009 13.1079 L 138.4321 13.1079 L 138.4321 19.2012 L 143.0009 19.2012 C 143.8445 19.2012 144.5602 18.9061 145.1482 18.3181 C 145.7477 17.7185 146.0475 16.9981 146.0475 16.1546 C 146.0475 15.3133 145.7477 14.5976 145.1482 14.0073 C 144.5602 13.4077 143.8445 13.1079 143.0009 13.1079 Z M 140.4725 22.2478 L 138.4321 22.2478 L 138.4321 31.3877 L 135.3855 31.3877 L 135.3855 10.0636 L 143.0009 10.0636 C 144.688 10.0636 146.1242 10.6562 147.3117 11.8437 C 148.4992 13.0336 149.0941 14.4697 149.0941 16.1546 C 149.0941 17.8417 148.4992 19.2779 147.3117 20.4654 C 146.3473 21.4298 145.2202 22.0038 143.9305 22.1874 L 149.1848 31.3877 L 145.6827 31.3877 L 140.4725 22.2478 Z " stroke-width="2.323895215988159"/>
      <path id="path4155" fill="#ffffff" stroke="none" d="M 164.325 13.1079 L 153.6629 13.1079 L 153.6629 17.679 L 164.325 17.679 L 164.325 20.7257 L 153.6629 20.7257 L 153.6629 28.3411 L 164.325 28.3411 L 164.325 31.3877 L 150.6163 31.3877 L 150.6163 10.0636 L 164.325 10.0636 L 164.325 13.1079 Z " stroke-width="2.323895215988159"/>
    </g>
  </g>
</svg>