<svg xmlns="http://www.w3.org/2000/svg" xmlns:xlink="http://www.w3.org/1999/xlink" version="1.1" width="100.2951271533966" height="13.535134553909302" viewBox="-0.37706705927848816 0.4545329213142395 100.2951271533966 13.535134553909302">
  <!-- Exported by Scratch - http://scratch.mit.edu/ -->
  <g id="ID0.39906434435397387">
    <g id="text7">
      <path id="path3345" fill="#808080" stroke="none" d="M 1.9366 2.795 L 1.9366 5.4589 L 4.1568 5.4589 C 4.5242 5.4589 4.8378 5.3289 5.0978 5.0679 C 5.3588 4.808 5.4888 4.4943 5.4888 4.1269 C 5.4888 3.7596 5.3588 3.4459 5.0978 3.186 C 4.8378 2.925 4.5242 2.795 4.1568 2.795 L 1.9366 2.795 Z M 1.9366 7.2355 L 1.9366 11.676 L 4.1568 11.676 C 4.7723 11.676 5.2965 11.4601 5.7283 11.0272 C 6.1612 10.5954 6.3771 10.0712 6.3771 9.4557 C 6.3771 8.8403 6.1612 8.3161 5.7283 7.8832 C 5.2965 7.4514 4.7723 7.2355 4.1568 7.2355 L 1.9366 7.2355 Z M 0.16 13.4526 L 0.16 1.0184 L 4.1568 1.0184 C 5.0151 1.0184 5.7466 1.3235 6.3502 1.9336 C 6.9603 2.5372 7.2654 3.2687 7.2654 4.1269 C 7.2654 4.9261 7.0011 5.6157 6.4748 6.1957 C 6.652 6.3268 6.8207 6.4718 6.9807 6.6318 C 7.7627 7.4127 8.1537 8.3547 8.1537 9.4557 C 8.1537 10.5567 7.7627 11.4987 6.9807 12.2796 C 6.1998 13.0616 5.2578 13.4526 4.1568 13.4526 L 0.16 13.4526 Z " stroke-width="1.074134111404419"/>
      <path id="path3347" fill="#808080" stroke="none" d="M 17.0346 2.795 L 10.8175 2.795 L 10.8175 5.4589 L 17.0346 5.4589 L 17.0346 7.2355 L 10.8175 7.2355 L 10.8175 11.676 L 17.0346 11.676 L 17.0346 13.4526 L 9.0409 13.4526 L 9.0409 1.0184 L 17.0346 1.0184 L 17.0346 2.795 Z " stroke-width="1.074134111404419"/>
      <path id="path3349" fill="#808080" stroke="none" d="M 22.9585 6.7822 C 23.864 7.3268 24.56 7.8692 25.0455 8.4074 C 25.531 8.9466 25.7738 9.5266 25.7738 10.1485 C 25.7738 10.7705 25.6073 11.3322 25.2765 11.836 C 24.9446 12.3333 24.5246 12.7265 24.0154 13.0165 C 23.5063 13.3076 22.807 13.4526 21.9187 13.4526 C 21.0304 13.4526 20.2903 13.3011 19.6985 12.9993 C 19.1066 12.691 18.5148 12.241 17.9229 11.6491 L 19.2194 10.3086 C 20.2377 11.0369 21.0959 11.4633 21.7952 11.5868 C 22.4934 11.706 23.0584 11.5363 23.4912 11.0809 C 23.923 10.6255 23.9853 10.1722 23.6771 9.7221 C 23.3699 9.2721 22.8661 8.8252 22.1679 8.3805 C 21.4751 7.9315 20.8478 7.5341 20.285 7.1915 C 19.7221 6.8477 19.2484 6.4482 18.8639 5.9916 C 18.4793 5.5362 18.2634 4.997 18.2151 4.3761 C 18.1743 3.7542 18.3247 3.1796 18.6684 2.6522 C 19.0175 2.1194 19.4976 1.7112 20.1077 1.4266 C 20.7168 1.1366 21.4364 0.9916 22.2657 0.9916 C 23.1003 0.9916 23.7694 1.1247 24.2721 1.3911 C 24.7759 1.6575 25.3237 2.1172 25.9156 2.7682 L 24.5836 4.1269 C 23.8554 3.2805 23.1185 2.824 22.372 2.7596 C 21.6319 2.6941 21.0723 2.8337 20.6931 3.1763 C 20.3204 3.5136 20.1217 3.8638 20.0981 4.2247 C 20.0744 4.5802 20.1937 4.8788 20.4536 5.1216 C 20.7146 5.359 20.9692 5.5598 21.2173 5.7253 C 21.4719 5.8853 22.0519 6.2376 22.9585 6.7822 Z " stroke-width="1.074134111404419"/>
      <path id="path3351" fill="#808080" stroke="none" d="M 30.356 2.795 L 26.8039 2.795 L 26.8039 1.0184 L 35.6848 1.0184 L 35.6848 2.795 L 32.1327 2.795 L 32.1327 13.4526 L 30.356 13.4526 L 30.356 2.795 Z " stroke-width="1.074134111404419"/>
      <path id="path3353" fill="#808080" stroke="none" d="M 46.12 6.7822 C 47.0266 7.3268 47.7216 7.8692 48.2071 8.4074 C 48.6926 8.9466 48.9353 9.5266 48.9353 10.1485 C 48.9353 10.7705 48.7699 11.3322 48.438 11.836 C 48.1072 12.3333 47.6861 12.7265 47.177 13.0165 C 46.6678 13.3076 45.9697 13.4526 45.0813 13.4526 C 44.193 13.4526 43.453 13.3011 42.8611 12.9993 C 42.2693 12.691 41.6763 12.241 41.0845 11.6491 L 42.381 10.3086 C 43.3992 11.0369 44.2586 11.4633 44.9567 11.5868 C 45.656 11.706 46.221 11.5363 46.6528 11.0809 C 47.0857 10.6255 47.148 10.1722 46.8397 9.7221 C 46.5314 9.2721 46.0287 8.8252 45.3295 8.3805 C 44.6367 7.9315 44.0094 7.5341 43.4465 7.1915 C 42.8847 6.8477 42.411 6.4482 42.0265 5.9916 C 41.6409 5.5362 41.425 4.997 41.3777 4.3761 C 41.3358 3.7542 41.4873 3.1796 41.831 2.6522 C 42.1801 2.1194 42.6592 1.7112 43.2693 1.4266 C 43.8794 1.1366 44.5991 0.9916 45.4272 0.9916 C 46.2629 0.9916 46.931 1.1247 47.4348 1.3911 C 47.9375 1.6575 48.4853 2.1172 49.0782 2.7682 L 47.7452 4.1269 C 47.0169 3.2805 46.2801 2.824 45.5346 2.7596 C 44.7945 2.6941 44.2349 2.8337 43.8558 3.1763 C 43.483 3.5136 43.2843 3.8638 43.2607 4.2247 C 43.2371 4.5802 43.3552 4.8788 43.6162 5.1216 C 43.8762 5.359 44.1307 5.5598 44.3799 5.7253 C 44.6345 5.8853 45.2145 6.2376 46.12 6.7822 Z " stroke-width="1.074134111404419"/>
      <path id="path3355" fill="#808080" stroke="none" d="M 49.9654 7.2355 C 49.9654 5.518 50.5723 4.0528 51.7861 2.8391 C 52.9999 1.6253 54.4661 1.0184 56.1825 1.0184 C 57.9001 1.0184 59.3652 1.6253 60.5789 2.8391 C 60.7916 3.0528 60.9871 3.2741 61.1654 3.505 L 59.7443 4.5706 C 59.6197 4.4052 59.4801 4.2451 59.3265 4.0915 C 58.4565 3.2268 57.4081 2.795 56.1825 2.795 C 54.9569 2.795 53.9086 3.23 53.0385 4.1001 C 52.1739 4.9648 51.742 6.0099 51.742 7.2355 C 51.742 8.4611 52.1739 9.5094 53.0385 10.3795 C 53.9086 11.2442 54.9569 11.676 56.1825 11.676 C 57.4081 11.676 58.4565 11.2442 59.3265 10.3795 C 59.4801 10.2259 59.6197 10.0658 59.7443 9.8993 L 61.1654 10.966 C 60.9871 11.1969 60.7916 11.4182 60.5789 11.6319 C 59.3652 12.8457 57.9001 13.4526 56.1825 13.4526 C 54.4661 13.4526 52.9999 12.8457 51.7861 11.6319 C 50.5723 10.4182 49.9654 8.952 49.9654 7.2355 Z " stroke-width="1.074134111404419"/>
      <path id="path3357" fill="#808080" stroke="none" d="M 68.2257 1.0184 C 69.9422 1.0184 71.4084 1.6253 72.6221 2.8391 C 73.8359 4.0528 74.4428 5.518 74.4428 7.2355 C 74.4428 8.952 73.8359 10.4182 72.6221 11.6319 C 71.4084 12.8457 69.9422 13.4526 68.2257 13.4526 C 66.5082 13.4526 65.0431 12.8457 63.8293 11.6319 C 62.6155 10.4182 62.0086 8.952 62.0086 7.2355 C 62.0086 5.518 62.6155 4.0528 63.8293 2.8391 C 65.0431 1.6253 66.5082 1.0184 68.2257 1.0184 Z M 68.2257 2.795 C 67.0001 2.795 65.9518 3.23 65.0817 4.1001 C 64.217 4.9648 63.7852 6.0099 63.7852 7.2355 C 63.7852 8.4611 64.217 9.5094 65.0817 10.3795 C 65.9518 11.2442 67.0001 11.676 68.2257 11.676 C 69.4513 11.676 70.4964 11.2442 71.3611 10.3795 C 72.2312 9.5094 72.6662 8.4611 72.6662 7.2355 C 72.6662 6.0099 72.2312 4.9648 71.3611 4.1001 C 70.4964 3.23 69.4513 2.795 68.2257 2.795 Z " stroke-width="1.074134111404419"/>
      <path id="path3359" fill="#808080" stroke="none" d="M 79.7716 2.795 L 77.1067 2.795 L 77.1067 6.3472 L 79.7716 6.3472 C 80.2625 6.3472 80.6803 6.1753 81.0229 5.8327 C 81.3731 5.4825 81.5471 5.0625 81.5471 4.5706 C 81.5471 4.0797 81.3731 3.6618 81.0229 3.3192 C 80.6803 2.969 80.2625 2.795 79.7716 2.795 Z M 78.2968 8.1238 L 77.1067 8.1238 L 77.1067 13.4526 L 75.33 13.4526 L 75.33 1.0184 L 79.7716 1.0184 C 80.7544 1.0184 81.5922 1.3654 82.284 2.0582 C 82.9768 2.7499 83.3237 3.5877 83.3237 4.5706 C 83.3237 5.5534 82.9768 6.3912 82.284 7.084 C 81.7222 7.6469 81.0648 7.9809 80.3129 8.0884 L 83.3764 13.4526 L 81.3344 13.4526 L 78.2968 8.1238 Z " stroke-width="1.074134111404419"/>
      <path id="path3361" fill="#808080" stroke="none" d="M 92.2047 2.795 L 85.9876 2.795 L 85.9876 5.4589 L 92.2047 5.4589 L 92.2047 7.2355 L 85.9876 7.2355 L 85.9876 11.676 L 92.2047 11.676 L 92.2047 13.4526 L 84.212 13.4526 L 84.212 1.0184 L 92.2047 1.0184 L 92.2047 2.795 Z " stroke-width="1.074134111404419"/>
      <path id="path3363" fill="#808080" stroke="none" d="M 97.6044 11.676 L 97.6044 9.8993 L 99.381 9.8993 L 99.381 11.676 L 97.6044 11.676 Z M 99.381 6.3472 L 99.381 8.1238 L 97.6044 8.1238 L 97.6044 6.3472 L 99.381 6.3472 Z " stroke-width="1.074134111404419"/>
    </g>
  </g>
</svg>