<svg xmlns="http://www.w3.org/2000/svg" xmlns:xlink="http://www.w3.org/1999/xlink" version="1.1" width="57" height="70.31451416015625" viewBox="-0.5190000012516975 -0.3999999985098839 57 70.31451416015625">
  <!-- Exported by Scratch - http://scratch.mit.edu/ -->
  <path id="path3137" fill="#ebebeb" stroke="none" d="M 6.981 0.1 C 5.049 0.1 3.398 0.808 2.013 2.194 C 0.664 3.579 -0.019 5.204 -0.019 7.1 C -0.019 9.032 0.664 10.683 2.013 12.069 C 3.398 13.418 5.049 14.1 6.981 14.1 L 41.981 14.1 L 41.75 24.15 L 17 48.85 C 8.758 57.075 7.333 56.926 6.1 62.65 C 5.449 65.676 9.638 69.994 12.75 69.35 C 18.913 67.961 23.239 62.113 28 57.85 C 35.56 51.08 42.499 43.697 49.5 36.25 C 51.875 33.724 55.037 31.496 55.981 28.1 L 55.981 14.1 C 55.981 10.235 54.622 6.954 51.888 4.256 C 49.153 1.485 45.846 0.1 41.981 0.1 L 6.981 0.1 Z " stroke-width="1"/>
</svg>