<svg xmlns="http://www.w3.org/2000/svg" xmlns:xlink="http://www.w3.org/1999/xlink" version="1.1" width="68.0469970703125" height="30.95199966430664" viewBox="-0.04399996995925903 -0.4139999970793724 68.0469970703125 30.95199966430664">
  <!-- Exported by Scratch - http://scratch.mit.edu/ -->
  <g id="ID0.5991968675516546">
    <g id="text7">
      <path id="path3364" fill="#ff3464" stroke="none" d="M 23.336 1.947 L 19.616 1.947 L 19.616 0.086 L 28.917 0.086 L 28.917 1.947 L 25.197 1.947 L 25.197 13.109 L 23.336 13.109 L 23.336 1.947 Z " stroke-width="1"/>
      <path id="path3366" fill="#ff3464" stroke="none" d="M 32.508 11.248 L 31.838 13.109 L 29.848 13.109 L 34.498 0.086 L 39.149 13.109 L 37.159 13.109 L 36.498 11.248 L 32.508 11.248 Z M 35.829 9.388 L 34.498 5.667 L 33.168 9.388 L 35.829 9.388 Z " stroke-width="1"/>
      <path id="path3368" fill="#ff3464" stroke="none" d="M 44.73 7.528 L 41.94 7.528 L 41.94 13.109 L 40.079 13.109 L 40.079 0.086 L 44.73 0.086 C 45.76 0.086 46.637 0.449 47.363 1.175 C 48.088 1.9 48.451 2.778 48.451 3.807 C 48.451 4.836 48.088 5.714 47.363 6.439 C 46.637 7.165 45.76 7.528 44.73 7.528 Z M 44.73 1.947 L 41.94 1.947 L 41.94 5.667 L 44.73 5.667 C 45.245 5.667 45.682 5.488 46.042 5.128 C 46.408 4.762 46.591 4.322 46.591 3.807 C 46.591 3.292 46.408 2.855 46.042 2.496 C 45.682 2.13 45.245 1.947 44.73 1.947 Z " stroke-width="1"/>
    </g>
    <g id="text13">
      <path id="path3351" fill="#ff3464" stroke="none" d="M 4.177 18.875 L 0.456 18.875 L 0.456 17.015 L 9.758 17.015 L 9.758 18.875 L 6.037 18.875 L 6.037 30.038 L 4.177 30.038 L 4.177 18.875 Z " stroke-width="1"/>
      <path id="path3353" fill="#ff3464" stroke="none" d="M 17.199 17.015 C 18.998 17.015 20.532 17.651 21.804 18.922 C 23.075 20.193 23.711 21.728 23.711 23.526 C 23.711 25.325 23.075 26.859 21.804 28.131 C 20.532 29.402 18.998 30.038 17.199 30.038 C 15.401 30.038 13.866 29.402 12.595 28.131 C 11.324 26.859 10.688 25.325 10.688 23.526 C 10.688 21.728 11.324 20.193 12.595 18.922 C 13.866 17.651 15.401 17.015 17.199 17.015 Z M 17.199 18.875 C 15.916 18.875 14.818 19.331 13.907 20.243 C 13.001 21.148 12.548 22.243 12.548 23.526 C 12.548 24.81 13.001 25.908 13.907 26.819 C 14.818 27.725 15.916 28.177 17.199 28.177 C 18.483 28.177 19.578 27.725 20.483 26.819 C 21.394 25.908 21.85 24.81 21.85 23.526 C 21.85 22.243 21.394 21.148 20.483 20.243 C 19.578 19.331 18.483 18.875 17.199 18.875 Z " stroke-width="1"/>
      <path id="path3355" fill="#ff3464" stroke="none" d="M 29.366 28.177 C 30.135 28.177 30.792 27.904 31.338 27.359 C 31.884 26.813 32.157 26.156 32.157 25.387 L 32.157 17.015 L 34.017 17.015 L 34.017 25.387 C 34.017 26.67 33.561 27.768 32.65 28.679 C 31.744 29.585 30.65 30.038 29.366 30.038 L 29.366 28.177 Z " stroke-width="1"/>
      <path id="path3357" fill="#ff3464" stroke="none" d="M 34.947 25.387 L 34.947 17.015 L 36.807 17.015 L 36.807 25.387 C 36.807 26.156 37.08 26.813 37.626 27.359 C 38.172 27.904 38.829 28.177 39.598 28.177 C 40.367 28.177 41.024 27.904 41.57 27.359 C 42.116 26.813 42.389 26.156 42.389 25.387 L 42.389 17.015 L 44.249 17.015 L 44.249 25.387 C 44.249 26.67 43.793 27.768 42.882 28.679 C 41.976 29.585 40.882 30.038 39.598 30.038 C 38.314 30.038 37.217 29.585 36.305 28.679 C 35.4 27.768 34.947 26.67 34.947 25.387 Z " stroke-width="1"/>
      <path id="path3359" fill="#ff3464" stroke="none" d="M 51.662 29.935 L 49.179 22.996 L 47.132 30.038 L 45.179 30.038 L 48.956 17.015 L 51.681 24.773 L 54.406 17.015 L 58.183 30.038 L 56.23 30.038 L 54.183 22.996 L 51.7 29.935 L 51.7 30.038 L 51.681 29.991 L 51.662 30.038 L 51.662 29.935 Z " stroke-width="1"/>
      <path id="path3361" fill="#ff3464" stroke="none" d="M 63.783 24.456 L 60.992 24.456 L 60.992 30.038 L 59.132 30.038 L 59.132 17.015 L 63.783 17.015 C 64.812 17.015 65.689 17.378 66.415 18.103 C 67.14 18.829 67.503 19.706 67.503 20.736 C 67.503 21.765 67.14 22.643 66.415 23.368 C 65.689 24.094 64.812 24.456 63.783 24.456 Z M 63.783 18.875 L 60.992 18.875 L 60.992 22.596 L 63.783 22.596 C 64.297 22.596 64.734 22.416 65.094 22.057 C 65.46 21.691 65.643 21.25 65.643 20.736 C 65.643 20.221 65.46 19.784 65.094 19.424 C 64.734 19.058 64.297 18.875 63.783 18.875 Z " stroke-width="1"/>
    </g>
  </g>
</svg>