<svg xmlns="http://www.w3.org/2000/svg" xmlns:xlink="http://www.w3.org/1999/xlink" version="1.1" width="12.161999702453613" height="18.445056915283203" viewBox="-0.3540000021457672 -0.008056223392486572 12.161999702453613 18.445056915283203">
  <!-- Exported by Scratch - http://scratch.mit.edu/ -->
  <g id="ID0.2772512692026794">
    <g id="text3428">
      <path id="path3439" fill="#FFFFFF" stroke="none" stroke-width="1" d="M 0.146 17.937 C 0.146 15.456 0.857 13.389 2.279 11.735 C 3.701 10.082 5.065 8.717 6.372 7.643 C 7.678 6.568 8.331 5.72 8.331 5.1 C 8.34 4.48 8.079 3.934 7.55 3.463 C 7.029 2.983 6.289 2.789 5.33 2.88 C 4.379 2.971 3.271 3.649 2.006 4.914 L 0.518 3.141 C 1.097 2.231 2.006 1.516 3.246 0.995 C 4.487 0.466 5.843 0.354 7.314 0.66 C 8.794 0.966 9.774 1.594 10.254 2.545 C 10.741 3.488 10.911 4.414 10.762 5.323 C 10.622 6.233 10.307 7.031 9.82 7.717 C 9.332 8.395 8.65 9.09 7.773 9.801 C 6.905 10.512 5.929 11.425 4.846 12.542 C 3.771 13.658 3.246 14.629 3.271 15.456 L 11.308 15.456 L 11.308 17.937 L 0.146 17.937 Z "/>
    </g>
  </g>
</svg>