<svg xmlns:dc="http://purl.org/dc/elements/1.1/" xmlns:cc="http://creativecommons.org/ns#" xmlns:rdf="http://www.w3.org/1999/02/22-rdf-syntax-ns#" xmlns:svg="http://www.w3.org/2000/svg" xmlns="http://www.w3.org/2000/svg" xmlns:sodipodi="http://sodipodi.sourceforge.net/DTD/sodipodi-0.dtd" xmlns:inkscape="http://www.inkscape.org/namespaces/inkscape" version="1.0" width="68.04707336425781" height="30.9511775970459" id="svg2" inkscape:version="0.91pre2 r13516" viewBox="10.95619010925293 10.586366653442383 68.04707336425781 30.9511775970459" sodipodi:docname="Jumpqueue2.svg" xml:space="preserve">
  <defs id="defs4">
    <pattern id="EMFhbasepattern" patternUnits="userSpaceOnUse" width="6" height="6" x="0" y="0"/>
  </defs>
  <g>
    <metadata id="metadata21">
      <rdf:RDF>
        <cc:Work rdf:about="">
          <dc:format>image/svg+xml</dc:format>
          <dc:type rdf:resource="http://purl.org/dc/dcmitype/StillImage"/>
          <dc:title/>
        </cc:Work>
      </rdf:RDF>
    </metadata>
    <sodipodi:namedview pagecolor="#ffffff" bordercolor="#666666" borderopacity="1" objecttolerance="10" gridtolerance="10" guidetolerance="10" inkscape:pageopacity="0" inkscape:pageshadow="2" inkscape:window-width="640" inkscape:window-height="480" id="namedview19" inkscape:document-units="mm" showgrid="false" inkscape:zoom="0.89015446" inkscape:cx="-23.444679" inkscape:cy="97.825985" inkscape:window-x="0" inkscape:window-y="0" inkscape:window-maximized="0" inkscape:current-layer="svg2"/>
    <g style="font-style:normal;font-variant:normal;font-weight:400;font-size:19.05000114px;line-height:125%;font-family:'Blissful Thinking';text-align:start;letter-spacing:0px;word-spacing:0px;text-anchor:start;fill:#000000;fill-opacity:1;stroke:none" id="text7">
      <path d="m 22.649527,17.597599 q 0,-2.69751 1.90686,-4.604371 1.906861,-1.90686 4.60437,-1.90686 2.69751,0 4.604371,1.90686 0.334863,0.334864 0.613916,0.697632 l -1.488281,1.116211 q -0.195337,-0.260449 -0.437183,-0.502295 -1.367359,-1.358057 -3.292823,-1.358057 -1.925464,0 -3.292822,1.367359 -1.358057,1.358057 -1.358057,3.283521 0,1.925464 1.358057,3.292822 1.367358,1.358057 3.292822,1.358057 1.925464,0 3.292823,-1.358057 0.241846,-0.241846 0.437183,-0.502295 l 1.488281,1.116211 q -0.279053,0.362769 -0.613916,0.697632 -1.906861,1.90686 -4.604371,1.90686 -2.697509,0 -4.60437,-1.90686 -1.90686,-1.90686 -1.90686,-4.60437 z" style="font-style:normal;font-variant:normal;font-weight:400;font-size:19.05000114px;font-family:'Blissful Thinking';fill:#ff3464" id="path3364" stroke-width="1"/>
      <path d="m 35.262711,24.108829 0,-13.022461 1.860351,0 0,11.16211 4.650879,0 0,1.860351 -6.51123,0 z" style="font-style:normal;font-variant:normal;font-weight:400;font-size:19.05000114px;font-family:'Blissful Thinking';fill:#ff3464" id="path3366" stroke-width="1"/>
      <path d="m 44.564468,11.086368 0,13.022461 -1.860351,0 0,-13.022461 1.860351,0 z" style="font-style:normal;font-variant:normal;font-weight:400;font-size:19.05000114px;font-family:'Blissful Thinking';fill:#ff3464" id="path3368" stroke-width="1"/>
      <path d="m 45.494644,17.597599 q 0,-2.69751 1.906861,-4.604371 1.90686,-1.90686 4.60437,-1.90686 2.69751,0 4.60437,1.90686 0.334864,0.334864 0.613916,0.697632 l -1.488281,1.116211 q -0.195337,-0.260449 -0.437183,-0.502295 -1.367358,-1.358057 -3.292822,-1.358057 -1.925464,0 -3.292822,1.367359 -1.358057,1.358057 -1.358057,3.283521 0,1.925464 1.358057,3.292822 1.367358,1.358057 3.292822,1.358057 1.925464,0 3.292822,-1.358057 0.241846,-0.241846 0.437183,-0.502295 l 1.488281,1.116211 q -0.279052,0.362769 -0.613916,0.697632 -1.90686,1.90686 -4.60437,1.90686 -2.69751,0 -4.60437,-1.90686 -1.906861,-1.90686 -1.906861,-4.60437 z" style="font-style:normal;font-variant:normal;font-weight:400;font-size:19.05000114px;font-family:'Blissful Thinking';fill:#ff3464" id="path3370" stroke-width="1"/>
      <path d="m 58.107828,11.086368 1.860352,0 0,6.101953 5.041553,-6.101953 2.409155,0 -4.418335,5.357813 4.371826,7.664648 -2.139404,0 -3.497461,-6.129858 -1.767334,2.139404 0,3.990454 -1.860352,0 0,-13.022461 z" style="font-style:normal;font-variant:normal;font-weight:400;font-size:19.05000114px;font-family:'Blissful Thinking';fill:#ff3464" id="path3372" stroke-width="1"/>
    </g>
    <g style="font-style:normal;font-variant:normal;font-weight:400;font-size:19.05000114px;line-height:125%;font-family:'Blissful Thinking';text-align:start;letter-spacing:0px;word-spacing:0px;text-anchor:start;fill:#000000;fill-opacity:1;stroke:none" id="text13">
      <path d="m 15.176893,29.87543 -3.720703,0 0,-1.860351 9.301758,0 0,1.860351 -3.720703,0 0,11.16211 -1.860352,0 0,-11.16211 z" style="font-style:normal;font-variant:normal;font-weight:400;font-size:19.05000114px;font-family:'Blissful Thinking';fill:#ff3464" id="path3351" stroke-width="1"/>
      <path d="m 28.199356,28.015079 q 2.697509,0 4.60437,1.90686 1.90686,1.906861 1.90686,4.604371 0,2.69751 -1.90686,4.60437 -1.906861,1.90686 -4.60437,1.90686 -2.69751,0 -4.604371,-1.90686 -1.90686,-1.90686 -1.90686,-4.60437 0,-2.69751 1.90686,-4.604371 1.906861,-1.90686 4.604371,-1.90686 z m 0,1.860351 q -1.925464,0 -3.292823,1.367359 -1.358057,1.358057 -1.358057,3.283521 0,1.925464 1.358057,3.292822 1.367359,1.358057 3.292823,1.358057 1.925463,0 3.28352,-1.358057 1.367359,-1.367358 1.367359,-3.292822 0,-1.925464 -1.367359,-3.283521 -1.358057,-1.367359 -3.28352,-1.367359 z" style="font-style:normal;font-variant:normal;font-weight:400;font-size:19.05000114px;font-family:'Blissful Thinking';fill:#ff3464" id="path3353" stroke-width="1"/>
      <path d="m 40.366056,39.177189 q 1.153418,0 1.971973,-0.818555 0.818555,-0.818555 0.818555,-1.971973 l 0,-8.371582 1.860352,0 0,8.371582 q 0,1.925464 -1.367359,3.292823 -1.358057,1.358056 -3.283521,1.358056 l 0,-1.860351 z" style="font-style:normal;font-variant:normal;font-weight:400;font-size:19.05000114px;font-family:'Blissful Thinking';fill:#ff3464" id="path3355" stroke-width="1"/>
      <path d="m 45.947111,36.386661 0,-8.371582 1.860352,0 0,8.371582 q 0,1.153418 0.818555,1.971973 0.818554,0.818555 1.971972,0.818555 1.153418,0 1.971973,-0.818555 0.818555,-0.818555 0.818555,-1.971973 l 0,-8.371582 1.860352,0 0,8.371582 q 0,1.925464 -1.367359,3.292823 -1.358057,1.358056 -3.283521,1.358056 -1.925464,0 -3.292822,-1.358056 -1.358057,-1.367359 -1.358057,-3.292823 z" style="font-style:normal;font-variant:normal;font-weight:400;font-size:19.05000114px;font-family:'Blissful Thinking';fill:#ff3464" id="path3357" stroke-width="1"/>
      <path d="m 62.66237,40.935221 -2.483569,-6.939112 -2.046387,7.041431 -1.953369,0 3.776514,-13.022461 2.725415,7.757666 2.725415,-7.757666 3.776514,13.022461 -1.953369,0 -2.046387,-7.041431 -2.48357,6.939112 0,0.102319 -0.0186,-0.04651 -0.0186,0.04651 0,-0.102319 z" style="font-style:normal;font-variant:normal;font-weight:400;font-size:19.05000114px;font-family:'Blissful Thinking';fill:#ff3464" id="path3359" stroke-width="1"/>
      <path d="m 74.782561,35.456485 -2.790528,0 0,5.581055 -1.860352,0 0,-13.022461 4.65088,0 q 1.544092,0 2.632397,1.088305 1.088306,1.088306 1.088306,2.632398 0,1.544092 -1.088306,2.632398 -1.088305,1.088305 -2.632397,1.088305 z m 0,-5.581055 -2.790528,0 0,3.720704 2.790528,0 q 0.772046,0 1.311548,-0.539502 0.548803,-0.548804 0.548803,-1.32085 0,-0.772046 -0.548803,-1.311548 -0.539502,-0.548804 -1.311548,-0.548804 z" style="font-style:normal;font-variant:normal;font-weight:400;font-size:19.05000114px;font-family:'Blissful Thinking';fill:#ff3464" id="path3361" stroke-width="1"/>
    </g>
  </g>
</svg>