<svg xmlns="http://www.w3.org/2000/svg" xmlns:xlink="http://www.w3.org/1999/xlink" version="1.1" width="234.11638217510836" height="82.85117679180757" viewBox="-1.4091872540218449 -1.2686872449619389 234.11638217510836 82.85117679180757">
  <!-- Exported by Scratch - http://scratch.mit.edu/ -->
  <g id="ID0.7164800679311156">
    <path id="path7" fill="#ff3464" stroke="none" d="M 0.0907 10.3104 C 0.0907 4.7449 4.5902 0.2312 10.153 0.2312 L 221.1281 0.2312 C 226.6936 0.2312 231.2073 4.7449 231.2073 10.3104 L 231.2073 70.0062 C 231.2073 75.5689 226.6936 80.0826 221.1281 80.0826 L 10.153 80.0826 C 4.5902 80.0826 0.0907 75.5689 0.0907 70.0062 Z " stroke-width="2.8352298736572266"/>
    <g id="text9">
      <path id="path3361" fill="#ffffff" stroke="none" d="M 88.5159 63.4795 L 85.2979 63.4795 L 85.2979 69.9098 L 83.1545 69.9098 L 83.1545 54.9029 L 88.5159 54.9029 C 89.701 54.9029 90.7132 55.3197 91.5496 56.1561 C 92.386 56.9925 92.8027 58.0047 92.8027 59.1898 C 92.8027 60.3778 92.386 61.3871 91.5496 62.2235 C 90.7132 63.0599 89.701 63.4795 88.5159 63.4795 Z M 88.5159 57.0464 L 85.2979 57.0464 L 85.2979 61.3332 L 88.5159 61.3332 C 89.1084 61.3332 89.6131 61.1263 90.0271 60.7123 C 90.4467 60.2899 90.6593 59.7824 90.6593 59.1898 C 90.6593 58.5972 90.4467 58.0926 90.0271 57.6786 C 89.6131 57.2562 89.1084 57.0464 88.5159 57.0464 Z " stroke-width="2.8352298736572266"/>
      <path id="path3363" fill="#ffffff" stroke="none" d="M 101.3793 54.9029 C 103.4519 54.9029 105.2211 55.6344 106.684 57.1002 C 108.1498 58.566 108.8813 60.3352 108.8813 62.4078 C 108.8813 64.4803 108.1498 66.2467 106.684 67.7125 C 105.2211 69.1783 103.4519 69.9098 101.3793 69.9098 C 99.3068 69.9098 97.5376 69.1783 96.0718 67.7125 C 94.606 66.2467 93.8745 64.4803 93.8745 62.4078 C 93.8745 60.3352 94.606 58.566 96.0718 57.1002 C 97.5376 55.6344 99.3068 54.9029 101.3793 54.9029 Z M 101.3793 57.0464 C 99.8993 57.0464 98.6348 57.5709 97.5829 58.6227 C 96.5396 59.6661 96.0179 60.9278 96.0179 62.4078 C 96.0179 63.8849 96.5396 65.1494 97.5829 66.2013 C 98.6348 67.2447 99.8993 67.7664 101.3793 67.7664 C 102.8593 67.7664 104.1181 67.2447 105.1615 66.2013 C 106.2134 65.1494 106.7379 63.8849 106.7379 62.4078 C 106.7379 60.9278 106.2134 59.6661 105.1615 58.6227 C 104.1181 57.5709 102.8593 57.0464 101.3793 57.0464 Z " stroke-width="2.8352298736572266"/>
      <path id="path3365" fill="#ffffff" stroke="none" d="M 112.0993 54.9029 L 112.0993 69.9098 L 109.9559 69.9098 L 109.9559 54.9029 L 112.0993 54.9029 Z " stroke-width="2.8352298736572266"/>
      <path id="path3367" fill="#ffffff" stroke="none" d="M 113.171 54.8717 L 121.7476 64.3045 L 121.7476 54.9029 L 123.891 54.9029 L 123.891 66.6521 L 123.9336 66.6946 L 123.891 66.6946 L 123.891 69.9098 L 123.7408 69.6745 L 115.3145 60.4231 L 115.3145 69.9098 L 113.171 69.9098 L 113.171 54.8717 Z " stroke-width="2.8352298736572266"/>
      <path id="path3369" fill="#ffffff" stroke="none" d="M 129.2496 57.0464 L 124.9628 57.0464 L 124.9628 54.9029 L 135.6828 54.9029 L 135.6828 57.0464 L 131.3959 57.0464 L 131.3959 69.9098 L 129.2496 69.9098 L 129.2496 57.0464 Z " stroke-width="2.8352298736572266"/>
      <path id="path3371" fill="#ffffff" stroke="none" d="M 142.8332 61.8606 C 143.9276 62.5184 144.7668 63.1705 145.3509 63.8226 C 145.9378 64.4718 146.2298 65.1721 146.2298 65.9235 C 146.2298 66.672 146.0313 67.3524 145.6316 67.9592 C 145.2318 68.5602 144.7243 69.0337 144.1091 69.3853 C 143.4938 69.734 142.6518 69.9098 141.58 69.9098 C 140.5055 69.9098 139.6124 69.7283 138.8979 69.3626 C 138.1834 68.9912 137.469 68.4497 136.7545 67.7352 L 138.3195 66.1163 C 139.55 66.9952 140.5849 67.5084 141.4298 67.6586 C 142.2718 67.8032 142.9551 67.5991 143.4768 67.049 C 143.9985 66.499 144.0722 65.9518 143.7008 65.4075 C 143.3294 64.8659 142.7226 64.3244 141.8777 63.7885 C 141.0413 63.247 140.2843 62.7679 139.6067 62.3539 C 138.9263 61.9371 138.3564 61.4551 137.8914 60.9051 C 137.4264 60.3551 137.1656 59.7058 137.1089 58.9545 C 137.0578 58.2031 137.2393 57.5113 137.6561 56.8762 C 138.0757 56.2326 138.6569 55.7393 139.3912 55.3963 C 140.1284 55.0447 140.996 54.8717 141.9968 54.8717 C 143.0033 54.8717 143.8114 55.0305 144.4181 55.3537 C 145.0277 55.6741 145.6883 56.227 146.4028 57.0152 L 144.7952 58.6539 C 143.9163 57.6333 143.026 57.0832 142.1244 57.0038 C 141.2313 56.9244 140.5565 57.0917 140.1 57.5085 C 139.6492 57.9139 139.4111 58.3364 139.3799 58.773 C 139.3515 59.2011 139.4961 59.5612 139.8109 59.8561 C 140.1256 60.1424 140.4318 60.3834 140.7323 60.5847 C 141.0385 60.7775 141.7388 61.2028 142.8332 61.8606 Z " stroke-width="2.8352298736572266"/>
    </g>
    <path id="path15" fill="#c82343" stroke="none" d="M 11.5422 20.3131 C 11.5422 15.0651 15.8007 10.7953 21.0573 10.7953 L 60.4386 10.7953 C 65.6951 10.7953 69.9536 15.0651 69.9536 20.3131 L 69.9536 59.6945 C 69.9536 64.951 65.6951 69.2095 60.4386 69.2095 L 21.0573 69.2095 C 15.8007 69.2095 11.5422 64.951 11.5422 59.6945 Z " stroke-width="2.8352298736572266"/>
    <path id="path17" fill="#961a32" stroke="none" d="M 39.6932 50.1681 L 39.6932 50.1681 C 46.1292 50.1681 51.3488 44.9484 51.3488 38.5068 L 51.3488 23.5992 L 28.0319 23.5992 L 28.0319 38.5068 C 28.0319 44.9484 33.2516 50.1681 39.6932 50.1681 Z " stroke-width="2.8352298736572266"/>
    <path id="path19" fill="none" stroke="#961a32" stroke-width="2.9997745090927315" stroke-linecap="butt" stroke-linejoin="miter" d="M 46.8267 43.6981 L 51.3488 43.6981 C 53.8467 43.6981 55.871 41.6709 55.871 39.1759 L 55.871 26.9873 L 46.8267 26.9873 Z "/>
    <path id="path21" fill="none" stroke="#961a32" stroke-width="2.9997745090927315" stroke-linecap="butt" stroke-linejoin="miter" d="M 32.1799 43.6981 L 27.6577 43.6981 C 25.1598 43.6981 23.1355 41.6709 23.1355 39.1759 L 23.1355 26.9873 L 32.1799 26.9873 Z "/>
    <path id="path23" fill="#961a32" stroke="none" d="M 36.8381 48.4726 L 36.8381 56.0115 L 42.6787 56.0115 L 42.6787 48.4726 L 36.8381 48.4726 Z " stroke-width="2.8352298736572266"/>
    <path id="path25" fill="#961a32" stroke="none" d="M 30.079 55.2828 L 39.2963 52.9948 L 49.0835 55.2828 L 49.3018 59.7824 L 30.0506 59.7824 C 30.0648 58.2825 30.0733 56.7827 30.079 55.2828 Z " stroke-width="2.8352298736572266"/>
    <path id="path27" fill="#c82343" stroke="none" d="M 162.1837 20.3131 C 162.1837 15.0651 166.4422 10.8038 171.693 10.8038 L 211.08 10.8038 C 216.328 10.8038 220.5894 15.0651 220.5894 20.3131 L 220.5894 59.7001 C 220.5894 64.951 216.328 69.2095 211.08 69.2095 L 171.693 69.2095 C 166.4422 69.2095 162.1837 64.951 162.1837 59.7001 Z " stroke-width="2.8352298736572266"/>
  </g>
</svg>