<svg xmlns="http://www.w3.org/2000/svg" xmlns:xlink="http://www.w3.org/1999/xlink" version="1.1" width="19.891000747680664" height="19.934999465942383" viewBox="-0.46799999848008156 -0.49699999997392297 19.891000747680664 19.934999465942383">
  <!-- Exported by Scratch - http://scratch.mit.edu/ -->
  <g id="ID0.2827406404539943">
    <path id="path7" fill="#ff3464" stroke="none" d="M 0.032 9.469 C 0.032 4.241 4.262 0.003 9.477 0.003 C 14.695 0.003 18.923 4.241 18.923 9.469 C 18.923 14.698 14.695 18.938 9.477 18.938 C 4.262 18.938 0.032 14.698 0.032 9.469 Z " stroke-width="1"/>
    <path id="path9" fill="#ffffff" stroke="none" d="M 4.040 7.200 C 4.040 6.605 4.521 6.124 5.115 6.124 L 6.399 6.124 C 6.994 6.124 7.474 6.605 7.474 7.200 L 7.474 13.195 C 7.474 13.789 6.994 14.270 6.399 14.270 L 5.115 14.270 C 4.521 14.270 4.040 13.789 4.040 13.195 Z " stroke-width="1"/>
    <path id="path11" fill="#ffffff" stroke="none" d="M 8.003 4.603 C 8.003 4.008 8.484 3.525 9.078 3.525 L 10.362 3.525 C 10.957 3.525 11.438 4.008 11.438 4.603 L 11.438 13.195 C 11.438 13.789 10.957 14.270 10.362 14.270 L 9.078 14.270 C 8.484 14.270 8.003 13.789 8.003 13.195 Z " stroke-width="1"/>
    <path id="path13" fill="#ffffff" stroke="none" d="M 11.879 9.282 C 11.879 8.682 12.365 8.193 12.967 8.193 L 14.267 8.193 C 14.870 8.193 15.356 8.682 15.356 9.282 L 15.356 13.181 C 15.356 13.784 14.870 14.270 14.267 14.270 L 12.967 14.270 C 12.365 14.270 11.879 13.784 11.879 13.181 Z " stroke-width="1"/>
  </g>
</svg>