<svg xmlns="http://www.w3.org/2000/svg" xmlns:xlink="http://www.w3.org/1999/xlink" version="1.1" width="57" height="71" viewBox="-0.5190000012516975 -0.48099999874830246 57 71">
  <!-- Exported by Scratch - http://scratch.mit.edu/ -->
  <path id="path3085" fill="#ebebeb" stroke="none" d="M 13.981 0.019 C 10.08 0.019 6.773 1.378 4.075 4.113 C 1.341 6.847 -0.019 10.154 -0.019 14.019 L -0.019 28.019 C -0.019 31.92 1.346 35.227 4.044 37.925 C 6.778 40.659 10.08 42.019 13.981 42.019 L 34.981 42.019 C 36.877 42.019 38.533 42.696 39.919 44.081 C 41.304 45.467 41.981 47.123 41.981 49.019 C 41.981 50.951 41.304 52.602 39.919 53.988 C 38.533 55.336 36.877 56.019 34.981 56.019 L 6.981 56.019 C 5.049 56.019 3.398 56.696 2.013 58.081 C 0.664 59.467 -0.019 61.123 -0.019 63.019 C -0.019 64.951 0.664 66.602 2.013 67.988 C 3.398 69.336 5.049 70.019 6.981 70.019 L 41.981 70.019 C 45.846 70.019 49.127 68.654 51.825 65.956 C 54.596 63.222 55.981 59.92 55.981 56.019 L 55.981 14.019 C 55.981 10.154 54.622 6.873 51.888 4.175 C 49.153 1.404 45.846 0.019 41.981 0.019 L 13.981 0.019 Z M 20.981 14.019 L 34.981 14.019 C 36.877 14.019 38.533 14.696 39.919 16.081 C 41.304 17.467 41.981 19.123 41.981 21.019 C 41.981 22.951 41.304 24.602 39.919 25.988 C 38.533 27.336 36.877 28.019 34.981 28.019 L 20.981 28.019 C 19.049 28.019 17.398 27.336 16.013 25.988 C 14.664 24.602 13.981 22.951 13.981 21.019 C 13.981 19.123 14.664 17.467 16.013 16.081 C 17.398 14.696 19.049 14.019 20.981 14.019 Z " stroke-width="1"/>
</svg>