<svg xmlns="http://www.w3.org/2000/svg" xmlns:xlink="http://www.w3.org/1999/xlink" version="1.1" width="19.516000747680664" height="19.516000747680664" viewBox="-0.5 -0.5 19.516000747680664 19.516000747680664">
  <!-- Exported by Scratch - http://scratch.mit.edu/ -->
  <g id="ID0.37623431300744414">
    <path id="path7" fill="#EE2A4B" stroke="none" d="M -0.000 9.258 C -0.000 4.148 4.148 0 9.258 0 C 14.373 0 18.516 4.148 18.516 9.258 C 18.516 14.373 14.373 18.516 9.258 18.516 C 4.148 18.516 -0.000 14.373 -0.000 9.258 Z " stroke-width="1"/>
    <path id="path9" fill="#ffffff" stroke="none" d="M 3.439 6.877 L 3.439 11.310 L 7.872 11.310 L 7.872 6.877 L 3.439 6.877 Z " stroke-width="1"/>
    <path id="path11" fill="none" stroke="#ffffff" stroke-width="0.70359373" stroke-linecap="butt" stroke-linejoin="round" d="M 3.439 6.877 L 7.872 6.877 L 7.872 11.310 L 3.439 11.310 Z "/>
    <path id="path13" fill="#ffffff" stroke="none" d="M 10.051 14.326 L 4.169 9.739 L 4.169 8.681 L 10.051 4.100 Z " stroke-width="1"/>
    <path id="path15" fill="none" stroke="#ffffff" stroke-width="0.70359373" stroke-linecap="butt" stroke-linejoin="round" d="M 10.051 14.326 L 4.169 9.739 L 4.169 8.681 L 10.051 4.100 Z "/>
    <path id="path17" fill="none" stroke="#ffffff" stroke-width="0.79352677" stroke-linecap="round" stroke-linejoin="round" d="M 11.162 6.613 C 12.622 7.882 12.781 10.099 11.511 11.559 C 11.395 11.691 11.268 11.818 11.131 11.935 "/>
    <path id="path19" fill="none" stroke="#ffffff" stroke-width="0.79352677" stroke-linecap="round" stroke-linejoin="round" d="M 12.919 5.608 C 14.543 7.713 14.569 10.644 12.977 12.770 "/>
  </g>
</svg>