<svg xmlns="http://www.w3.org/2000/svg" xmlns:xlink="http://www.w3.org/1999/xlink" version="1.1" width="123.81834506988525" height="13.736842155456543" viewBox="-0.3724711090326309 0.25362884998321533 123.81834506988525 13.736842155456543">
  <!-- Exported by Scratch - http://scratch.mit.edu/ -->
  <g id="ID0.9468617211095989">
    <g id="text7">
      <path id="path3345" fill="#808080" stroke="none" d="M 10.0961 4.431 C 9.9708 4.2631 9.8291 4.1007 9.6732 3.9448 C 8.7901 3.0672 7.7262 2.629 6.4823 2.629 C 5.2385 2.629 4.1745 3.0705 3.2915 3.9535 C 2.4139 4.8311 1.9757 5.8918 1.9757 7.1357 C 1.9757 8.3795 2.4139 9.4435 3.2915 10.3265 C 4.1745 11.2041 5.2385 11.6423 6.4823 11.6423 C 7.7262 11.6423 8.7901 11.2008 9.6732 10.3178 C 10.3283 9.6626 10.7393 8.9017 10.9083 8.0372 L 6.4823 8.0372 L 6.4823 6.2341 L 12.7376 6.2341 C 12.7735 6.5284 12.7921 6.8293 12.7921 7.1357 C 12.7921 8.8777 12.1761 10.3657 10.9443 11.5976 C 9.7124 12.8295 8.2244 13.4454 6.4823 13.4454 C 4.7392 13.4454 3.2522 12.8295 2.0204 11.5976 C 0.7885 10.3657 0.1726 8.8777 0.1726 7.1357 C 0.1726 5.3925 0.7885 3.9056 2.0204 2.6737 C 3.2522 1.4418 4.7392 0.8259 6.4823 0.8259 C 8.2244 0.8259 9.7124 1.4418 10.9443 2.6737 C 11.1601 2.8906 11.3585 3.1152 11.5384 3.3496 L 10.0961 4.431 Z " stroke-width="1.0901422500610352"/>
      <path id="path3347" fill="#808080" stroke="none" d="M 16.2707 11.6423 L 15.6221 13.4454 L 13.6925 13.4454 L 18.2003 0.8259 L 22.7069 13.4454 L 20.7774 13.4454 L 20.1374 11.6423 L 16.2707 11.6423 Z M 19.4888 9.8392 L 18.2003 6.2341 L 16.9106 9.8392 L 19.4888 9.8392 Z " stroke-width="1.0901422500610352"/>
      <path id="path3349" fill="#808080" stroke="none" d="M 29.8899 13.3462 L 27.4839 6.6222 L 25.5009 13.4454 L 23.6085 13.4454 L 27.267 0.8259 L 29.9084 8.3435 L 32.5498 0.8259 L 36.2094 13.4454 L 34.3158 13.4454 L 32.3329 6.6222 L 29.9269 13.3462 L 29.9269 13.4454 L 29.9084 13.3996 L 29.8899 13.4454 L 29.8899 13.3462 Z " stroke-width="1.0901422500610352"/>
      <path id="path3351" fill="#808080" stroke="none" d="M 45.2401 2.629 L 38.9315 2.629 L 38.9315 5.3326 L 45.2401 5.3326 L 45.2401 7.1357 L 38.9315 7.1357 L 38.9315 11.6423 L 45.2401 11.6423 L 45.2401 13.4454 L 37.1284 13.4454 L 37.1284 0.8259 L 45.2401 0.8259 L 45.2401 2.629 Z " stroke-width="1.0901422500610352"/>
      <path id="path3353" fill="#808080" stroke="none" d="M 51.2523 6.6756 C 52.1724 7.2283 52.8777 7.7788 53.3704 8.325 C 53.8632 8.8722 54.1095 9.4609 54.1095 10.0921 C 54.1095 10.7233 53.9417 11.2935 53.6048 11.8047 C 53.269 12.3095 52.8417 12.7085 52.325 13.0028 C 51.8083 13.2982 51.0997 13.4454 50.1981 13.4454 C 49.2966 13.4454 48.5455 13.2917 47.9448 12.9854 C 47.3441 12.6725 46.7424 12.2157 46.1417 11.615 L 47.4575 10.2545 C 48.4909 10.9937 49.3631 11.4265 50.0717 11.5518 C 50.7802 11.6728 51.3548 11.5006 51.793 11.0384 C 52.2323 10.5761 52.2955 10.1161 51.9827 9.6593 C 51.6698 9.2026 51.1596 8.7491 50.4499 8.2977 C 49.7468 7.8421 49.1102 7.4387 48.5389 7.091 C 47.9688 6.7421 47.488 6.3366 47.0977 5.8733 C 46.7064 5.411 46.4873 4.8638 46.4393 4.2337 C 46.3968 3.6025 46.5505 3.0193 46.8993 2.484 C 47.2536 1.9433 47.7398 1.5291 48.359 1.2402 C 48.9782 0.9458 49.7086 0.7987 50.5491 0.7987 C 51.3962 0.7987 52.0753 0.9338 52.5866 1.2042 C 53.0968 1.4745 53.6528 1.9411 54.2545 2.6018 L 52.9017 3.9808 C 52.1625 3.1217 51.4147 2.6584 50.6571 2.593 C 49.906 2.5265 49.3391 2.6683 48.9543 3.016 C 48.576 3.3583 48.3743 3.7137 48.3503 4.08 C 48.3263 4.4408 48.4463 4.7439 48.7112 4.9903 C 48.975 5.2312 49.2333 5.435 49.4862 5.6029 C 49.7446 5.7653 50.3333 6.1229 51.2523 6.6756 Z " stroke-width="1.0901422500610352"/>
      <path id="path3355" fill="#808080" stroke="none" d="M 64.2413 8.0372 L 61.5367 8.0372 L 61.5367 13.4454 L 59.7347 13.4454 L 59.7347 0.8259 L 64.2413 0.8259 C 65.2388 0.8259 66.0891 1.178 66.7923 1.8812 C 67.4954 2.5832 67.8464 3.4335 67.8464 4.431 C 67.8464 5.4285 67.4954 6.2788 66.7923 6.9819 C 66.0891 7.6851 65.2388 8.0372 64.2413 8.0372 Z M 64.2413 2.629 L 61.5367 2.629 L 61.5367 6.2341 L 64.2413 6.2341 C 64.7395 6.2341 65.1636 6.0597 65.5124 5.7119 C 65.8667 5.3565 66.0433 4.9303 66.0433 4.431 C 66.0433 3.9328 65.8667 3.5087 65.5124 3.161 C 65.1636 2.8056 64.7395 2.629 64.2413 2.629 Z " stroke-width="1.0901422500610352"/>
      <path id="path3357" fill="#808080" stroke="none" d="M 68.748 13.4454 L 68.748 0.8259 L 70.55 0.8259 L 70.55 11.6423 L 75.0577 11.6423 L 75.0577 13.4454 L 68.748 13.4454 Z " stroke-width="1.0901422500610352"/>
      <path id="path3359" fill="#808080" stroke="none" d="M 78.5364 11.6423 L 77.8877 13.4454 L 75.9582 13.4454 L 80.4659 0.8259 L 84.9726 13.4454 L 83.043 13.4454 L 82.4031 11.6423 L 78.5364 11.6423 Z M 81.7545 9.8392 L 80.4659 6.2341 L 79.1763 9.8392 L 81.7545 9.8392 Z " stroke-width="1.0901422500610352"/>
      <path id="path3361" fill="#808080" stroke="none" d="M 89.4792 7.7668 L 85.873 0.8259 L 87.8026 0.8259 L 90.3808 5.7839 L 92.9579 0.8259 L 94.8874 0.8259 L 91.2812 7.7668 L 91.2812 13.4454 L 89.4792 13.4454 L 89.4792 7.7668 Z " stroke-width="1.0901422500610352"/>
      <path id="path3363" fill="#808080" stroke="none" d="M 103.9007 2.629 L 97.591 2.629 L 97.591 5.3326 L 103.9007 5.3326 L 103.9007 7.1357 L 97.591 7.1357 L 97.591 11.6423 L 103.9007 11.6423 L 103.9007 13.4454 L 95.789 13.4454 L 95.789 0.8259 L 103.9007 0.8259 L 103.9007 2.629 Z " stroke-width="1.0901422500610352"/>
      <path id="path3365" fill="#808080" stroke="none" d="M 106.6043 11.6423 L 109.3089 11.6423 C 110.5527 11.6423 111.6135 11.2041 112.491 10.3265 C 113.374 9.4435 113.8155 8.3795 113.8155 7.1357 C 113.8155 5.8918 113.374 4.8311 112.491 3.9535 C 111.6135 3.0705 110.5527 2.629 109.3089 2.629 L 106.6043 2.629 L 106.6043 11.6423 Z M 104.8022 0.8259 L 109.3089 0.8259 C 111.0509 0.8259 112.539 1.4418 113.7708 2.6737 C 115.0027 3.9056 115.6186 5.3925 115.6186 7.1357 C 115.6186 8.8777 115.0027 10.3657 113.7708 11.5976 C 112.539 12.8295 111.0509 13.4454 109.3089 13.4454 L 104.8022 13.4454 L 104.8022 0.8259 Z " stroke-width="1.0901422500610352"/>
      <path id="path3367" fill="#808080" stroke="none" d="M 121.0988 11.6423 L 121.0988 9.8392 L 122.9008 9.8392 L 122.9008 11.6423 L 121.0988 11.6423 Z M 122.9008 6.2341 L 122.9008 8.0372 L 121.0988 8.0372 L 121.0988 6.2341 L 122.9008 6.2341 Z " stroke-width="1.0901422500610352"/>
    </g>
  </g>
</svg>