<svg xmlns="http://www.w3.org/2000/svg" xmlns:xlink="http://www.w3.org/1999/xlink" version="1.1" width="484.9896433353424" height="362.95415139198303" viewBox="-1.463475695811212 -1.440875694155693 484.9896433353424 362.95415139198303">
  <!-- Exported by Scratch - http://scratch.mit.edu/ -->
  <path id="ID0.1442701811902225" fill="#EBEBEB" stroke="none" d="M 0.0136 0.0362 L 482.0491 0.0362 L 482.0491 360.0362 L 0.0136 360.0362 L 0.0136 0.0362 Z " stroke-width="1.509383926217213"/>
  <path id="path22" fill="#235a11" stroke="none" d="M 14.9595 299.9781 L 181.5564 299.9781 L 181.5564 299.9781 L 181.5564 346.7976 L 181.5564 346.7976 C 181.5564 351.9712 177.5188 356.1636 172.5383 356.1636 C 172.5383 356.1636 172.5383 356.1636 172.5383 356.1636 L 172.5383 356.1636 L 5.9408 356.1636 L 5.9408 356.1636 L 5.9408 309.3447 L 5.9408 309.3447 C 5.9408 304.1711 9.9784 299.9781 14.9595 299.9781 C 14.9595 299.9781 14.9595 299.9781 14.9595 299.9781 Z " stroke-width="0.5530885457992554"/>
  <path id="path3377" fill="#ffffff" stroke="none" d="M 32.1021 308.4487 C 21.3048 308.4487 12.5516 317.5359 12.5516 328.7487 C 12.5516 339.9587 21.3048 349.0481 32.1021 349.0481 C 42.9018 349.0481 51.6538 339.9587 51.6538 328.7487 C 51.6538 317.5359 42.9018 308.4487 32.1021 308.4487 Z M 32.1021 314.2285 C 39.8249 314.2285 46.0842 320.7306 46.0842 328.7487 C 46.0842 336.7646 39.8249 343.2656 32.1021 343.2656 C 24.3794 343.2656 18.1206 336.7646 18.1206 328.7487 C 18.1206 328.4981 18.1267 328.2487 18.1383 328.0015 C 18.5128 320.3301 24.6211 314.2285 32.1021 314.2285 Z M 32.1021 316.9939 C 25.8511 316.9939 20.7837 322.256 20.7837 328.7487 C 20.7837 335.2392 25.8511 340.4996 32.1021 340.4996 C 38.3532 340.4996 43.4233 335.2392 43.4233 328.7487 C 43.4233 322.256 38.3532 316.9939 32.1021 316.9939 Z M 32.1021 322.8699 C 35.2276 322.8699 37.7613 325.5037 37.7613 328.7487 C 37.7613 331.9942 35.2276 334.6247 32.1021 334.6247 C 28.9766 334.6247 26.4435 331.9942 26.4435 328.7487 C 26.4435 325.5037 28.9766 322.8699 32.1021 322.8699 Z M 32.1021 325.543 C 30.397 325.543 29.0154 326.9783 29.0154 328.7487 C 29.0154 330.5169 30.397 331.9516 32.1021 331.9516 C 33.8079 331.9516 35.19 330.5169 35.19 328.7487 C 35.19 326.9783 33.8079 325.543 32.1021 325.543 Z " stroke-width="0.5530885457992554"/>
  <path id="path11495" fill="#1a1a1a" stroke="none" stroke-width="0.44247084856033325" stroke-linecap="butt" stroke-linejoin="miter" d="M 56.6072 314.4852 L 56.6072 339.2697 L 60.1478 339.2697 L 60.1478 330.4177 C 60.1478 328.954 60.6668 327.7027 61.7053 326.6642 C 62.7438 325.6257 63.9951 325.1071 65.4583 325.1071 C 66.922 325.1071 68.1733 325.6257 69.2118 326.6642 C 70.2503 327.7027 70.7698 328.954 70.7698 330.4177 L 70.7698 339.2697 L 74.3095 339.2697 L 74.3095 330.4177 C 74.3095 327.9743 73.4423 325.8916 71.7074 324.1686 C 69.9844 322.4337 67.9017 321.5665 65.4583 321.5665 C 63.4402 321.5665 61.6704 322.1505 60.1478 323.3191 L 60.1478 314.4852 L 56.6072 314.4852 Z M 133.4382 314.4852 L 133.4382 339.2697 L 136.9789 339.2697 L 136.9789 330.4177 C 136.9789 328.954 137.4975 327.7027 138.5364 326.6642 C 139.5749 325.6257 140.8262 325.1071 142.2894 325.1071 C 143.7527 325.1071 145.004 325.6257 146.0425 326.6642 C 147.0814 327.7027 147.6008 328.954 147.6008 330.4177 L 147.6008 339.2697 L 151.1415 339.2697 L 151.1415 330.4177 C 151.1415 327.9743 150.2734 325.8916 148.5384 324.1686 C 146.8155 322.4337 144.7323 321.5665 142.2894 321.5665 C 140.2713 321.5665 138.5014 322.1505 136.9789 323.3191 L 136.9789 314.4852 L 133.4382 314.4852 Z M 167.074 314.4852 L 167.074 323.3191 C 165.5514 322.1505 163.7807 321.5665 161.7626 321.5665 C 159.3192 321.5665 157.2312 322.4337 155.4963 324.1686 C 153.7729 325.8916 152.9114 327.9743 152.9114 330.4177 C 152.9114 332.8605 153.7729 334.9499 155.4963 336.6848 C 157.2312 338.4078 159.3192 339.2697 161.7626 339.2697 C 163.7807 339.2697 165.5514 338.6852 167.074 337.5171 L 167.074 339.2697 L 170.6146 339.2697 L 170.6146 314.4852 L 167.074 314.4852 Z M 172.3845 314.4852 L 172.3845 318.0258 L 175.9252 318.0258 L 175.9252 314.4852 L 172.3845 314.4852 Z M 84.9315 321.5665 C 82.4886 321.5665 80.4001 322.4337 78.6652 324.1686 C 76.9422 325.8916 76.0803 327.9743 76.0803 330.4177 C 76.0803 332.8605 76.9422 334.9499 78.6652 336.6848 C 80.4001 338.4078 82.4886 339.2697 84.9315 339.2697 C 87.3744 339.2697 89.4575 338.4078 91.1805 336.6848 C 92.9154 334.9499 93.7836 332.8605 93.7836 330.4177 C 93.7836 327.9743 92.9154 325.8916 91.1805 324.1686 C 89.4575 322.4337 87.3744 321.5665 84.9315 321.5665 Z M 95.5534 321.5665 L 95.5534 330.4177 C 95.5534 332.8605 96.4154 334.9499 98.1384 336.6848 C 99.8733 338.4078 101.9626 339.2697 104.4055 339.2697 C 106.4236 339.2697 108.1935 338.6852 109.716 337.5171 L 109.716 339.2697 L 113.2567 339.2697 L 113.2567 321.5665 L 109.716 321.5665 L 109.716 330.4177 C 109.716 331.8809 109.1966 333.1322 108.1577 334.1707 C 107.1192 335.2092 105.8688 335.7291 104.4055 335.7291 C 102.9418 335.7291 101.691 335.2092 100.652 334.1707 C 99.6136 333.1322 99.0941 331.8809 99.0941 330.4177 L 99.0941 321.5665 L 95.5534 321.5665 Z M 123.8787 321.5665 C 121.4353 321.5665 119.346 322.4337 117.6115 324.1686 C 115.8881 325.8916 115.0275 327.9743 115.0275 330.4177 C 115.0275 332.8605 115.8881 334.9499 117.6115 336.6848 C 119.346 338.4078 121.4353 339.2697 123.8787 339.2697 C 126.3215 339.2697 128.4109 338.4016 130.1458 336.6667 C 130.6648 336.1472 131.1126 335.5866 131.4905 334.9848 L 128.4458 333.1614 C 128.2215 333.5154 127.9503 333.8521 127.6317 334.1707 C 126.5932 335.2092 125.3419 335.7291 123.8787 335.7291 C 122.415 335.7291 121.1637 335.2092 120.1252 334.1707 C 119.0867 333.1322 118.5672 331.8809 118.5672 330.4177 C 118.5672 328.954 119.0867 327.7027 120.1252 326.6642 C 121.1637 325.6257 122.415 325.1071 123.8787 325.1071 C 125.3419 325.1071 126.5932 325.6257 127.6317 326.6642 C 127.9503 326.9828 128.2215 327.3195 128.4458 327.6739 L 131.4905 325.85 C 131.1126 325.2483 130.6648 324.6815 130.1458 324.1505 C 128.4109 322.4271 126.3215 321.5665 123.8787 321.5665 Z M 172.3845 321.5665 L 172.3845 337.499 C 172.3845 338.9622 171.8655 340.2135 170.827 341.252 C 169.7885 342.2905 168.5372 342.8095 167.074 342.8095 L 167.074 346.3501 C 169.5169 346.3501 171.5996 345.4829 173.323 343.748 C 175.0579 342.0246 175.9252 339.9418 175.9252 337.499 L 175.9252 321.5665 L 172.3845 321.5665 Z M 84.9315 325.1071 C 86.3952 325.1071 87.646 325.6257 88.685 326.6642 C 89.7234 327.7027 90.2429 328.954 90.2429 330.4177 C 90.2429 331.8809 89.7234 333.1322 88.685 334.1707 C 87.646 335.2092 86.3952 335.7291 84.9315 335.7291 C 83.4682 335.7291 82.2178 335.2092 81.1793 334.1707 C 80.1404 333.1322 79.621 331.8809 79.621 330.4177 C 79.621 328.954 80.1404 327.7027 81.1793 326.6642 C 82.2178 325.6257 83.4682 325.1071 84.9315 325.1071 Z M 161.7626 325.1071 C 163.2258 325.1071 164.4771 325.6257 165.5156 326.6642 C 166.5541 327.7027 167.074 328.954 167.074 330.4177 C 167.074 331.8809 166.5541 333.1322 165.5156 334.1707 C 164.4771 335.2092 163.2258 335.7291 161.7626 335.7291 C 160.2989 335.7291 159.0489 335.2092 158.01 334.1707 C 156.9715 333.1322 156.452 331.8809 156.452 330.4177 C 156.452 328.954 156.9715 327.7027 158.01 326.6642 C 159.0489 325.6257 160.2989 325.1071 161.7626 325.1071 Z "/>
  <g id="g11509">
    <path id="path11511" fill="#ffffff" stroke="none" stroke-width="0.5530885607004166" d="M 70.7473 330.3956 C 70.7473 328.9322 70.228 327.6811 69.1893 326.6424 C 68.1511 325.6037 66.9 325.0843 65.4366 325.0843 C 63.9731 325.0843 62.722 325.6037 61.6833 326.6424 C 60.6446 327.6811 60.1258 328.9322 60.1258 330.3956 L 60.1258 339.2467 L 56.5849 339.2467 L 56.5849 314.4628 L 60.1258 314.4628 L 60.1258 323.2968 C 61.6479 322.1281 63.4183 321.544 65.4366 321.544 C 67.8795 321.544 69.9625 322.4113 71.6853 324.1463 C 73.4204 325.8692 74.2882 327.9527 74.2882 330.3956 L 74.2882 339.2467 L 70.7473 339.2467 L 70.7473 330.3956 Z "/>
    <path id="path11513" fill="#ffffff" stroke="none" stroke-width="0.5530885607004166" d="M 84.9097 339.2467 C 82.4667 339.2467 80.3777 338.3856 78.6426 336.6621 C 76.9198 334.9277 76.0581 332.8386 76.0581 330.3956 C 76.0581 327.9527 76.9198 325.8692 78.6426 324.1463 C 80.3777 322.4113 82.4667 321.544 84.9097 321.544 C 87.3527 321.544 89.4356 322.4113 91.159 324.1463 C 92.8935 325.8692 93.7613 327.9527 93.7613 330.3956 C 93.7613 332.8386 92.8935 334.9277 91.159 336.6621 C 89.4356 338.3856 87.3527 339.2467 84.9097 339.2467 Z M 84.9097 325.0843 C 83.4462 325.0843 82.1951 325.6037 81.1564 326.6424 C 80.1183 327.6811 79.5989 328.9322 79.5989 330.3956 C 79.5989 331.8591 80.1183 333.1102 81.1564 334.1483 C 82.1951 335.1871 83.4462 335.7064 84.9097 335.7064 C 86.3732 335.7064 87.6243 335.1871 88.663 334.1483 C 89.7011 333.1102 90.2205 331.8591 90.2205 330.3956 C 90.2205 328.9322 89.7011 327.6811 88.663 326.6424 C 87.6243 325.6037 86.3732 325.0843 84.9097 325.0843 Z "/>
    <path id="path11515" fill="#ffffff" stroke="none" stroke-width="0.5530885607004166" d="M 99.0721 330.3956 C 99.0721 331.8591 99.5914 333.1102 100.6301 334.1483 C 101.6683 335.1871 102.9194 335.7064 104.3828 335.7064 C 105.8463 335.7064 107.0974 335.1871 108.1361 334.1483 C 109.1748 333.1102 109.6941 331.8591 109.6941 330.3956 L 109.6941 321.544 L 113.2345 321.544 L 113.2345 339.2467 L 109.6941 339.2467 L 109.6941 337.4945 C 108.1715 338.6627 106.4011 339.2467 104.3828 339.2467 C 101.9398 339.2467 99.8508 338.3856 98.1163 336.6621 C 96.3929 334.9277 95.5318 332.8386 95.5318 330.3956 L 95.5318 321.544 L 99.0721 321.544 L 99.0721 330.3956 Z "/>
    <path id="path11517" fill="#ffffff" stroke="none" stroke-width="0.5530885607004166" d="M 128.4234 333.1395 L 131.4687 334.963 C 131.0909 335.5648 130.6424 336.1256 130.123 336.6444 C 128.388 338.3795 126.2995 339.2467 123.8565 339.2467 C 121.4135 339.2467 119.3245 338.3856 117.5895 336.6621 C 115.8666 334.9277 115.0049 332.8386 115.0049 330.3956 C 115.0049 327.9527 115.8666 325.8692 117.5895 324.1463 C 119.3245 322.4113 121.4135 321.544 123.8565 321.544 C 126.2995 321.544 128.388 322.4057 130.123 324.1286 C 130.6424 324.6596 131.0909 325.2265 131.4687 325.8282 L 128.4234 327.6518 C 128.1994 327.2972 127.9278 326.961 127.6092 326.6424 C 126.5705 325.6037 125.32 325.0843 123.8565 325.0843 C 122.3931 325.0843 121.142 325.6037 120.1033 326.6424 C 119.0646 327.6811 118.5452 328.9322 118.5452 330.3956 C 118.5452 331.8591 119.0646 333.1102 120.1033 334.1483 C 121.142 335.1871 122.3931 335.7064 123.8565 335.7064 C 125.32 335.7064 126.5705 335.1871 127.6092 334.1483 C 127.9278 333.8298 128.1994 333.4935 128.4234 333.1395 Z "/>
    <path id="path11519" fill="#ffffff" stroke="none" stroke-width="0.5530885607004166" d="M 147.5785 330.3956 C 147.5785 328.9322 147.0591 327.6811 146.0204 326.6424 C 144.9817 325.6037 143.7307 325.0843 142.2672 325.0843 C 140.8037 325.0843 139.5532 325.6037 138.5145 326.6424 C 137.4758 327.6811 136.9564 328.9322 136.9564 330.3956 L 136.9564 339.2467 L 133.4161 339.2467 L 133.4161 314.4628 L 136.9564 314.4628 L 136.9564 323.2968 C 138.4791 322.1281 140.249 321.544 142.2672 321.544 C 144.7102 321.544 146.7937 322.4113 148.5165 324.1463 C 150.2516 325.8692 151.1188 327.9527 151.1188 330.3956 L 151.1188 339.2467 L 147.5785 339.2467 L 147.5785 330.3956 Z "/>
    <path id="path11521" fill="#ffffff" stroke="none" stroke-width="0.5530885607004166" d="M 161.7409 325.0843 C 160.2774 325.0843 159.0263 325.6037 157.9876 326.6424 C 156.9489 327.6811 156.4296 328.9322 156.4296 330.3956 C 156.4296 331.8591 156.9489 333.1102 157.9876 334.1483 C 159.0263 335.1871 160.2774 335.7064 161.7409 335.7064 C 163.2044 335.7064 164.4549 335.1871 165.4936 334.1483 C 166.5323 333.1102 167.0516 331.8591 167.0516 330.3956 C 167.0516 328.9322 166.5323 327.6811 165.4936 326.6424 C 164.4549 325.6037 163.2044 325.0843 161.7409 325.0843 Z M 167.0516 337.4945 C 165.529 338.6627 163.7586 339.2467 161.7409 339.2467 C 159.2979 339.2467 157.2089 338.3856 155.4738 336.6621 C 153.751 334.9277 152.8893 332.8386 152.8893 330.3956 C 152.8893 327.9527 153.751 325.8692 155.4738 324.1463 C 157.2089 322.4113 159.2979 321.544 161.7409 321.544 C 163.7586 321.544 165.529 322.1281 167.0516 323.2968 L 167.0516 314.4628 L 170.592 314.4628 L 170.592 339.2467 L 167.0516 339.2467 L 167.0516 337.4945 Z "/>
    <path id="path11523" fill="#ffffff" stroke="none" stroke-width="0.5530885607004166" d="M 172.3624 318.0031 L 172.3624 314.4628 L 175.9033 314.4628 L 175.9033 318.0031 L 172.3624 318.0031 Z M 172.3624 321.544 L 175.9033 321.544 L 175.9033 337.4768 C 175.9033 339.9198 175.0355 342.0028 173.3004 343.7256 C 171.5776 345.4607 169.4946 346.3279 167.0516 346.3279 L 167.0516 342.7876 C 168.5151 342.7876 169.7662 342.2682 170.8043 341.2295 C 171.843 340.1914 172.3624 338.9403 172.3624 337.4768 L 172.3624 321.544 Z "/>
  </g>
  <g id="ID0.16000725561752915">
    <g id="text7">
      <path id="path3360" fill="#808080" stroke="none" d="M 93.717 53.524 L 101.9621 53.524 C 105.7552 53.524 108.987 52.1887 111.6605 49.5122 C 114.3547 46.821 115.7018 43.5773 115.7018 39.7872 C 115.7018 35.994 114.3547 32.7592 111.6605 30.0857 C 108.987 27.3945 105.7552 26.0474 101.9621 26.0474 L 93.717 26.0474 L 93.717 53.524 Z M 88.2223 20.5497 L 101.9621 20.5497 C 107.2736 20.5497 111.8082 22.4286 115.563 26.1833 C 119.3207 29.938 121.1965 34.4726 121.1965 39.7872 C 121.1965 45.0987 119.3207 49.6333 115.563 53.3881 C 111.8082 57.1428 107.2736 59.0216 101.9621 59.0216 L 88.2223 59.0216 L 88.2223 20.5497 Z " stroke-width="2.9541513919830322"/>
      <path id="path3362" fill="#808080" stroke="none" d="M 143.1813 20.5497 C 148.4929 20.5497 153.0275 22.4286 156.7822 26.1833 C 160.537 29.938 162.4158 34.4726 162.4158 39.7872 C 162.4158 45.0987 160.537 49.6333 156.7822 53.3881 C 153.0275 57.1428 148.4929 59.0216 143.1813 59.0216 C 137.8668 59.0216 133.3322 57.1428 129.5775 53.3881 C 125.8227 49.6333 123.9439 45.0987 123.9439 39.7872 C 123.9439 34.4726 125.8227 29.938 129.5775 26.1833 C 133.3322 22.4286 137.8668 20.5497 143.1813 20.5497 Z M 143.1813 26.0474 C 139.3882 26.0474 136.1445 27.3945 133.4533 30.0857 C 130.7769 32.7592 129.4416 35.994 129.4416 39.7872 C 129.4416 43.5773 130.7769 46.821 133.4533 49.5122 C 136.1445 52.1887 139.3882 53.524 143.1813 53.524 C 146.9715 53.524 150.2063 52.1887 152.8798 49.5122 C 155.574 46.821 156.9181 43.5773 156.9181 39.7872 C 156.9181 35.994 155.574 32.7592 152.8798 30.0857 C 150.2063 27.3945 146.9715 26.0474 143.1813 26.0474 Z " stroke-width="2.9541513919830322"/>
      <path id="path3364" fill="#808080" stroke="none" d="M 165.1632 20.467 L 187.145 44.6497 L 187.145 20.5497 L 192.6427 20.5497 L 192.6427 50.6673 L 192.752 50.7766 L 192.6427 50.7766 L 192.6427 59.0216 L 192.2586 58.416 L 170.6579 34.7031 L 170.6579 59.0216 L 165.1632 59.0216 L 165.1632 20.467 Z " stroke-width="2.9541513919830322"/>
      <path id="path3366" fill="#808080" stroke="none" d="M 198.1374 26.0474 L 195.39 26.0474 L 195.39 20.5497 L 200.8848 20.5497 L 200.8848 26.0474 C 200.8848 29.7105 199.0532 31.5421 195.39 31.5421 L 195.39 28.7948 C 197.2216 28.7948 198.1374 27.879 198.1374 26.0474 Z " stroke-width="2.9541513919830322"/>
      <path id="path3368" fill="#808080" stroke="none" d="M 214.6245 26.0474 L 203.6321 26.0474 L 203.6321 20.5497 L 231.1116 20.5497 L 231.1116 26.0474 L 220.1222 26.0474 L 220.1222 59.0216 L 214.6245 59.0216 L 214.6245 26.0474 Z " stroke-width="2.9541513919830322"/>
      <path id="path3370" fill="#808080" stroke="none" d="M 258.8098 26.0474 L 247.8203 26.0474 L 247.8203 20.5497 L 275.2969 20.5497 L 275.2969 26.0474 L 264.3074 26.0474 L 264.3074 59.0216 L 258.8098 59.0216 L 258.8098 26.0474 Z " stroke-width="2.9541513919830322"/>
      <path id="path3372" fill="#808080" stroke="none" d="M 297.2817 20.5497 C 302.5932 20.5497 307.1279 22.4286 310.8826 26.1833 C 314.6373 29.938 316.5162 34.4726 316.5162 39.7872 C 316.5162 45.0987 314.6373 49.6333 310.8826 53.3881 C 307.1279 57.1428 302.5932 59.0216 297.2817 59.0216 C 291.9701 59.0216 287.4355 57.1428 283.6778 53.3881 C 279.9231 49.6333 278.0472 45.0987 278.0472 39.7872 C 278.0472 34.4726 279.9231 29.938 283.6778 26.1833 C 287.4355 22.4286 291.9701 20.5497 297.2817 20.5497 Z M 297.2817 26.0474 C 293.4886 26.0474 290.2479 27.3945 287.5537 30.0857 C 284.8802 32.7592 283.5419 35.994 283.5419 39.7872 C 283.5419 43.5773 284.8802 46.821 287.5537 49.5122 C 290.2479 52.1887 293.4886 53.524 297.2817 53.524 C 301.0719 53.524 304.3067 52.1887 306.9802 49.5122 C 309.6744 46.821 311.0214 43.5773 311.0214 39.7872 C 311.0214 35.994 309.6744 32.7592 306.9802 30.0857 C 304.3067 27.3945 301.0719 26.0474 297.2817 26.0474 Z " stroke-width="2.9541513919830322"/>
      <path id="path3374" fill="#808080" stroke="none" d="M 319.2635 45.2819 L 319.2635 20.5497 L 324.7612 20.5497 L 324.7612 45.2819 C 324.7612 47.5536 325.5647 49.4945 327.1777 51.1075 C 328.7907 52.7204 330.7315 53.524 333.0033 53.524 C 335.275 53.524 337.2159 52.7204 338.8289 51.1075 C 340.4418 49.4945 341.2483 47.5536 341.2483 45.2819 L 341.2483 20.5497 L 346.743 20.5497 L 346.743 45.2819 C 346.743 49.075 345.3959 52.3157 342.7047 55.0099 C 340.0283 57.6834 336.7964 59.0216 333.0033 59.0216 C 329.2102 59.0216 325.9694 57.6834 323.2753 55.0099 C 320.6018 52.3157 319.2635 49.075 319.2635 45.2819 Z " stroke-width="2.9541513919830322"/>
      <path id="path3376" fill="#808080" stroke="none" d="M 349.4904 39.7872 C 349.4904 34.4726 351.3692 29.938 355.124 26.1833 C 358.8787 22.4286 363.4133 20.5497 368.7249 20.5497 C 374.0394 20.5497 378.574 22.4286 382.3287 26.1833 C 382.9875 26.8421 383.5931 27.5304 384.1426 28.2453 L 379.7439 31.5421 C 379.3598 31.0281 378.9285 30.5348 378.4529 30.0591 C 375.7617 27.3827 372.518 26.0474 368.7249 26.0474 C 364.9347 26.0474 361.691 27.3945 358.9998 30.0857 C 356.3234 32.7592 354.9881 35.994 354.9881 39.7872 C 354.9881 43.5773 356.3234 46.821 358.9998 49.5122 C 361.691 52.1887 364.9347 53.524 368.7249 53.524 C 372.518 53.524 375.7617 52.1887 378.4529 49.5122 C 378.9285 49.0366 379.3598 48.5433 379.7439 48.0292 L 384.1426 51.3261 C 383.5931 52.041 382.9875 52.7293 382.3287 53.3881 C 378.574 57.1428 374.0394 59.0216 368.7249 59.0216 C 363.4133 59.0216 358.8787 57.1428 355.124 53.3881 C 351.3692 49.6333 349.4904 45.0987 349.4904 39.7872 Z " stroke-width="2.9541513919830322"/>
      <path id="path3378" fill="#808080" stroke="none" d="M 392.2488 39.7872 L 392.2488 59.0216 L 386.7511 59.0216 L 386.7511 20.5497 L 392.2488 20.5497 L 392.2488 34.2895 L 408.7359 34.2895 L 408.7359 20.5497 L 414.2306 20.5497 L 414.2306 59.0216 L 408.7359 59.0216 L 408.7359 39.7872 L 392.2488 39.7872 Z " stroke-width="2.9541513919830322"/>
    </g>
    <g id="text13">
      <path id="path3341" fill="#808080" stroke="none" d="M 138.1445 76.0553 L 127.1551 76.0553 L 127.1551 70.5606 L 154.6316 70.5606 L 154.6316 76.0553 L 143.6422 76.0553 L 143.6422 109.0325 L 138.1445 109.0325 L 138.1445 76.0553 Z " stroke-width="2.9541513919830322"/>
      <path id="path3343" fill="#808080" stroke="none" d="M 162.8767 89.795 L 162.8767 109.0325 L 157.379 109.0325 L 157.379 70.5606 L 162.8767 70.5606 L 162.8767 84.3003 L 179.3638 84.3003 L 179.3638 70.5606 L 184.8585 70.5606 L 184.8585 109.0325 L 179.3638 109.0325 L 179.3638 89.795 L 162.8767 89.795 Z " stroke-width="2.9541513919830322"/>
      <path id="path3345" fill="#808080" stroke="none" d="M 212.338 76.0553 L 193.1035 76.0553 L 193.1035 84.3003 L 212.338 84.3003 L 212.338 89.795 L 193.1035 89.795 L 193.1035 103.5348 L 212.338 103.5348 L 212.338 109.0325 L 187.6059 109.0325 L 187.6059 70.5606 L 212.338 70.5606 L 212.338 76.0553 Z " stroke-width="2.9541513919830322"/>
      <path id="path3347" fill="#808080" stroke="none" d="M 244.6269 88.3948 C 247.4274 90.0786 249.581 91.7566 251.0817 93.4227 C 252.5854 95.0889 253.3357 96.885 253.3357 98.8081 C 253.3357 100.7313 252.8247 102.4742 251.7966 104.0311 C 250.7715 105.5702 249.4717 106.7873 247.8942 107.6854 C 246.3196 108.5834 244.1572 109.0325 241.4098 109.0325 C 238.6625 109.0325 236.373 108.5628 234.5414 107.6292 C 232.7098 106.678 230.8783 105.2836 229.0437 103.4521 L 233.0584 99.3044 C 236.2076 101.5555 238.8633 102.876 241.0258 103.2601 C 243.1882 103.6264 244.9371 103.1035 246.2753 101.6944 C 247.6106 100.2823 247.8026 98.882 246.8514 97.4906 C 245.9001 96.0992 244.3403 94.7137 242.1809 93.34 C 240.0361 91.9486 238.0953 90.7197 236.3553 89.6591 C 234.6153 88.5956 233.15 87.3608 231.9565 85.9487 C 230.766 84.5396 230.0984 82.8705 229.9507 80.9473 C 229.8236 79.0242 230.2904 77.2487 231.3539 75.6181 C 232.4351 73.9667 233.9181 72.7053 235.8058 71.8249 C 237.6905 70.9269 239.918 70.4778 242.4822 70.4778 C 245.0641 70.4778 247.135 70.8914 248.6918 71.7156 C 250.2486 72.5398 251.9443 73.9578 253.7759 75.9755 L 249.6549 80.1793 C 247.4008 77.5589 245.1202 76.1469 242.813 75.946 C 240.5206 75.7451 238.7895 76.1764 237.6196 77.2369 C 236.4646 78.2827 235.8501 79.3639 235.7763 80.4806 C 235.7054 81.5795 236.0717 82.5042 236.8752 83.2545 C 237.6817 83.9901 238.4704 84.6105 239.2385 85.1245 C 240.0273 85.6179 241.8234 86.7079 244.6269 88.3948 Z " stroke-width="2.9541513919830322"/>
      <path id="path3349" fill="#808080" stroke="none" d="M 270.263 92.5424 L 262.0209 92.5424 L 262.0209 109.0325 L 256.5233 109.0325 L 256.5233 70.5606 L 270.263 70.5606 C 273.3028 70.5606 275.8966 71.6329 278.0383 73.7747 C 280.1831 75.9194 281.2554 78.5102 281.2554 81.5529 C 281.2554 84.5928 280.1831 87.1865 278.0383 89.3283 C 275.8966 91.473 273.3028 92.5424 270.263 92.5424 Z M 270.263 76.0553 L 262.0209 76.0553 L 262.0209 87.0477 L 270.263 87.0477 C 271.7844 87.0477 273.0754 86.5159 274.1389 85.4554 C 275.2201 84.3742 275.7577 83.0714 275.7577 81.5529 C 275.7577 80.0316 275.2201 78.7406 274.1389 77.6771 C 273.0754 76.5959 271.7844 76.0553 270.263 76.0553 Z " stroke-width="2.9541513919830322"/>
      <path id="path3351" fill="#808080" stroke="none" d="M 289.4975 70.5606 L 289.4975 109.0325 L 284.0028 109.0325 L 284.0028 70.5606 L 289.4975 70.5606 Z " stroke-width="2.9541513919830322"/>
      <path id="path3353" fill="#808080" stroke="none" d="M 292.2478 70.5606 L 297.7425 70.5606 L 297.7425 88.5868 L 312.6344 70.5606 L 319.7539 70.5606 L 306.6995 86.3889 L 319.6151 109.0325 L 313.2961 109.0325 L 302.9625 90.9235 L 297.7425 97.2424 L 297.7425 109.0325 L 292.2478 109.0325 L 292.2478 70.5606 Z " stroke-width="2.9541513919830322"/>
      <path id="path3355" fill="#808080" stroke="none" d="M 347.2039 76.0553 L 327.9694 76.0553 L 327.9694 84.3003 L 347.2039 84.3003 L 347.2039 89.795 L 327.9694 89.795 L 327.9694 103.5348 L 347.2039 103.5348 L 347.2039 109.0325 L 322.4717 109.0325 L 322.4717 70.5606 L 347.2039 70.5606 L 347.2039 76.0553 Z " stroke-width="2.9541513919830322"/>
      <path id="path3357" fill="#808080" stroke="none" d="M 365.5314 88.3948 C 368.3349 90.0786 370.4885 91.7566 371.9892 93.4227 C 373.4929 95.0889 374.2432 96.885 374.2432 98.8081 C 374.2432 100.7313 373.7292 102.4742 372.7041 104.0311 C 371.679 105.5702 370.3792 106.7873 368.8017 107.6854 C 367.2271 108.5834 365.0647 109.0325 362.3173 109.0325 C 359.57 109.0325 357.2805 108.5628 355.4489 107.6292 C 353.6144 106.678 351.7828 105.2836 349.9513 103.4521 L 353.963 99.3044 C 357.1151 101.5555 359.7708 102.876 361.9333 103.2601 C 364.0957 103.6264 365.8446 103.1035 367.1799 101.6944 C 368.5181 100.2823 368.7101 98.882 367.7589 97.4906 C 366.8047 96.0992 365.2478 94.7137 363.0854 93.34 C 360.9436 91.9486 359.0028 90.7197 357.2598 89.6591 C 355.5198 88.5956 354.0546 87.3608 352.864 85.9487 C 351.6735 84.5396 351.0059 82.8705 350.8582 80.9473 C 350.7311 79.0242 351.1979 77.2487 352.2614 75.6181 C 353.3397 73.9667 354.8256 72.7053 356.7103 71.8249 C 358.5981 70.9269 360.8255 70.4778 363.3897 70.4778 C 365.9716 70.4778 368.0425 70.8914 369.5993 71.7156 C 371.1561 72.5398 372.8518 73.9578 374.6834 75.9755 L 370.5624 80.1793 C 368.3083 77.5589 366.0277 76.1469 363.7176 75.946 C 361.4281 75.7451 359.697 76.1764 358.5242 77.2369 C 357.3721 78.2827 356.7576 79.3639 356.6838 80.4806 C 356.6099 81.5795 356.9762 82.5042 357.7827 83.2545 C 358.5892 83.9901 359.3779 84.6105 360.146 85.1245 C 360.9348 85.6179 362.7309 86.7079 365.5314 88.3948 Z " stroke-width="2.9541513919830322"/>
    </g>
  </g>
  <g id="ID0.23056828137487173">
    <path id="path7" fill="#FF3464" stroke="none" d="M 180.5795 164.3618 C 180.5795 148.7682 193.2123 136.1354 208.806 136.1354 L 288.4327 136.1354 C 304.0263 136.1354 316.6724 148.7682 316.6724 164.3618 L 316.6724 246.527 C 316.6724 262.1207 304.0263 274.7535 288.4327 274.7535 L 208.806 274.7535 C 193.2123 274.7535 180.5795 262.1207 180.5795 246.527 Z " stroke-width="2.211238384246826"/>
    <path id="path9" fill="#EE2A4B" stroke="none" d="M 289.7439 274.7535 L 207.508 274.7535 C 192.6285 274.7535 180.5795 262.7067 180.5795 247.8383 L 180.5795 207.0365 L 316.6724 207.0365 L 316.6724 247.8383 C 316.6724 262.7067 304.6101 274.7535 289.7439 274.7535 Z " stroke-width="2.211238384246826"/>
    <path id="path11" fill="#ffffff" stroke="none" d="M 267.8217 177.5342 C 267.8084 170.6086 273.425 164.9943 280.3506 164.9943 C 287.2629 164.9943 292.8772 170.6086 292.8772 177.5342 C 292.8772 184.4465 287.2629 190.0631 280.3506 190.0631 C 273.425 190.0631 267.8217 184.4465 267.8217 177.5342 Z " stroke-width="2.211238384246826"/>
    <path id="path13" fill="#c82343" stroke="none" d="M 206.5947 207.0365 L 206.5947 149.4581 L 264.1709 207.0365 Z " stroke-width="2.211238384246826"/>
    <path id="path15" fill="#ff3464" stroke="none" d="M 206.5947 178.7968 L 142.9818 178.7968 L 206.5947 241.7662 Z " stroke-width="2.211238384246826"/>
    <path id="path17" fill="#ffc600" stroke="none" d="M 316.6834 207.0365 L 316.6834 168.1762 L 355.5437 207.0365 Z " stroke-width="2.211238384246826"/>
    <path id="path19" fill="#eaab00" stroke="none" d="M 316.6834 207.0365 L 355.5437 207.0365 L 316.6834 245.8968 Z " stroke-width="2.211238384246826"/>
  </g>
  <g id="ID0.17129193479195237">
    <path id="ID0.4002102604135871" fill="#808080" stroke="none" stroke-linecap="round" d="M 1.4921 116.9632 L 38.8921 140.5421 L 1.4921 166.3316 L 1.4921 116.9632 Z " stroke-width="0.8693694741503815"/>
    <path id="ID0.4002102604135871" fill="#808080" stroke="none" stroke-linecap="round" d="M 1.0921 164.0132 L 38.4921 187.5921 L 1.0921 213.3816 L 1.0921 164.0132 Z " stroke-width="0.8693694741503815"/>
    <path id="ID0.4002102604135871" fill="#808080" stroke="none" stroke-linecap="round" d="M 1.4921 212.1632 L 38.8921 235.7421 L 1.4921 261.5316 L 1.4921 212.1632 Z " stroke-width="0.8693694741503815"/>
  </g>
  <g id="ID0.17129193479195237">
    <path id="ID0.4002102604135871" fill="#808080" stroke="none" stroke-linecap="round" d="M 480.5079 121.4632 L 443.1079 145.0421 L 480.5079 170.8316 L 480.5079 121.4632 Z " stroke-width="0.8693694741503815"/>
    <path id="ID0.4002102604135871" fill="#808080" stroke="none" stroke-linecap="round" d="M 480.9079 168.5132 L 443.5079 192.0921 L 480.9079 217.8816 L 480.9079 168.5132 Z " stroke-width="0.8693694741503815"/>
    <path id="ID0.4002102604135871" fill="#808080" stroke="none" stroke-linecap="round" d="M 480.5079 216.6632 L 443.1079 240.2421 L 480.5079 266.0316 L 480.5079 216.6632 Z " stroke-width="0.8693694741503815"/>
  </g>
</svg>