<svg xmlns="http://www.w3.org/2000/svg" xmlns:xlink="http://www.w3.org/1999/xlink" version="1.1" width="398.1475830078125" height="128.231201171875" viewBox="-0.19380000233650208 -0.4625000059604645 398.1475830078125 128.231201171875">
  <!-- Exported by Scratch - http://scratch.mit.edu/ -->
  <path id="path22" fill="#235a11" stroke="none" d="M 20.8137 0.1625 L 397.3288 0.1625 L 397.3288 0.1625 L 397.3288 105.9762 L 397.3288 105.9762 C 397.3288 117.6688 388.2038 127.1437 376.9475 127.1437 C 376.9475 127.1437 376.9475 127.1437 376.9475 127.1437 L 376.9475 127.1437 L 0.4312 127.1437 L 0.4312 127.1437 L 0.4312 21.3313 L 0.4312 21.3313 C 0.4312 9.6388 9.5562 0.1625 20.8137 0.1625 C 20.8137 0.1625 20.8137 0.1625 20.8137 0.1625 Z " stroke-width="1.25"/>
  <path id="path3377" fill="#ffffff" stroke="none" d="M 59.2275 19.3512 C 34.825 19.3512 15.0425 39.8888 15.0425 65.23 C 15.0425 90.565 34.825 111.1075 59.2275 111.1075 C 83.635 111.1075 103.415 90.565 103.415 65.23 C 103.415 39.8888 83.635 19.3512 59.2275 19.3512 Z M 59.2275 32.4137 C 76.6812 32.4137 90.8275 47.1088 90.8275 65.23 C 90.8275 83.3462 76.6812 98.0387 59.2275 98.0387 C 41.7738 98.0387 27.6287 83.3462 27.6287 65.23 C 27.6287 64.6637 27.6425 64.1 27.6687 63.5413 C 28.515 46.2037 42.32 32.4137 59.2275 32.4137 Z M 59.2275 38.6637 C 45.1 38.6637 33.6475 50.5562 33.6475 65.23 C 33.6475 79.8988 45.1 91.7875 59.2275 91.7875 C 73.355 91.7875 84.8138 79.8988 84.8138 65.23 C 84.8138 50.5562 73.355 38.6637 59.2275 38.6637 Z M 59.2275 51.9438 C 66.2912 51.9438 72.0175 57.8963 72.0175 65.23 C 72.0175 72.565 66.2912 78.51 59.2275 78.51 C 52.1637 78.51 46.4387 72.565 46.4387 65.23 C 46.4387 57.8963 52.1637 51.9438 59.2275 51.9438 Z M 59.2275 57.985 C 55.3738 57.985 52.2512 61.2288 52.2512 65.23 C 52.2512 69.2263 55.3738 72.4688 59.2275 72.4688 C 63.0825 72.4688 66.2063 69.2263 66.2063 65.23 C 66.2063 61.2288 63.0825 57.985 59.2275 57.985 Z " stroke-width="1.25"/>
  <path id="path11495" fill="#1a1a1a" stroke="none" stroke-width="1" stroke-linecap="butt" stroke-linejoin="miter" d="M 114.939 32.963 L 114.939 88.977 L 122.941 88.977 L 122.941 68.971 C 122.941 65.663 124.114 62.835 126.461 60.488 C 128.808 58.141 131.636 56.969 134.943 56.969 C 138.251 56.969 141.079 58.141 143.426 60.488 C 145.773 62.835 146.947 65.663 146.947 68.971 L 146.947 88.977 L 154.947 88.977 L 154.947 68.971 C 154.947 63.449 152.987 58.742 149.066 54.848 C 145.172 50.927 140.465 48.967 134.943 48.967 C 130.382 48.967 126.382 50.287 122.941 52.928 L 122.941 32.963 L 114.939 32.963 Z M 288.580 32.963 L 288.580 88.977 L 296.582 88.977 L 296.582 68.971 C 296.582 65.663 297.754 62.835 300.102 60.488 C 302.449 58.141 305.277 56.969 308.584 56.969 C 311.891 56.969 314.719 58.141 317.066 60.488 C 319.414 62.835 320.588 65.663 320.588 68.971 L 320.588 88.977 L 328.590 88.977 L 328.590 68.971 C 328.590 63.449 326.628 58.742 322.707 54.848 C 318.813 50.927 314.105 48.967 308.584 48.967 C 304.023 48.967 300.023 50.287 296.582 52.928 L 296.582 32.963 L 288.580 32.963 Z M 364.598 32.963 L 364.598 52.928 C 361.157 50.287 357.155 48.967 352.594 48.967 C 347.072 48.967 342.353 50.927 338.432 54.848 C 334.537 58.742 332.590 63.449 332.590 68.971 C 332.590 74.492 334.537 79.214 338.432 83.135 C 342.353 87.029 347.072 88.977 352.594 88.977 C 357.155 88.977 361.157 87.656 364.598 85.016 L 364.598 88.977 L 372.600 88.977 L 372.600 32.963 L 364.598 32.963 Z M 376.600 32.963 L 376.600 40.965 L 384.602 40.965 L 384.602 32.963 L 376.600 32.963 Z M 178.953 48.967 C 173.432 48.967 168.712 50.927 164.791 54.848 C 160.897 58.742 158.949 63.449 158.949 68.971 C 158.949 74.492 160.897 79.214 164.791 83.135 C 168.712 87.029 173.432 88.977 178.953 88.977 C 184.474 88.977 189.182 87.029 193.076 83.135 C 196.997 79.214 198.959 74.492 198.959 68.971 C 198.959 63.449 196.997 58.742 193.076 54.848 C 189.182 50.927 184.474 48.967 178.953 48.967 Z M 202.959 48.967 L 202.959 68.971 C 202.959 74.492 204.907 79.214 208.801 83.135 C 212.722 87.029 217.444 88.977 222.965 88.977 C 227.526 88.977 231.526 87.656 234.967 85.016 L 234.967 88.977 L 242.969 88.977 L 242.969 48.967 L 234.967 48.967 L 234.967 68.971 C 234.967 72.278 233.793 75.106 231.445 77.453 C 229.098 79.800 226.272 80.975 222.965 80.975 C 219.657 80.975 216.830 79.800 214.482 77.453 C 212.135 75.106 210.961 72.278 210.961 68.971 L 210.961 48.967 L 202.959 48.967 Z M 266.975 48.967 C 261.453 48.967 256.731 50.927 252.811 54.848 C 248.916 58.742 246.971 63.449 246.971 68.971 C 246.971 74.492 248.916 79.214 252.811 83.135 C 256.731 87.029 261.453 88.977 266.975 88.977 C 272.496 88.977 277.218 87.015 281.139 83.094 C 282.312 81.920 283.324 80.653 284.178 79.293 L 277.297 75.172 C 276.790 75.972 276.177 76.733 275.457 77.453 C 273.110 79.800 270.282 80.975 266.975 80.975 C 263.667 80.975 260.839 79.800 258.492 77.453 C 256.145 75.106 254.971 72.278 254.971 68.971 C 254.971 65.663 256.145 62.835 258.492 60.488 C 260.839 58.141 263.667 56.969 266.975 56.969 C 270.282 56.969 273.110 58.141 275.457 60.488 C 276.177 61.208 276.790 61.969 277.297 62.770 L 284.178 58.648 C 283.324 57.288 282.312 56.007 281.139 54.807 C 277.218 50.912 272.496 48.967 266.975 48.967 Z M 376.600 48.967 L 376.600 84.975 C 376.600 88.282 375.427 91.110 373.080 93.457 C 370.733 95.804 367.905 96.977 364.598 96.977 L 364.598 104.979 C 370.119 104.979 374.826 103.019 378.721 99.098 C 382.642 95.203 384.602 90.496 384.602 84.975 L 384.602 48.967 L 376.600 48.967 Z M 178.953 56.969 C 182.261 56.969 185.088 58.141 187.436 60.488 C 189.783 62.835 190.957 65.663 190.957 68.971 C 190.957 72.278 189.783 75.106 187.436 77.453 C 185.088 79.800 182.261 80.975 178.953 80.975 C 175.646 80.975 172.820 79.800 170.473 77.453 C 168.125 75.106 166.951 72.278 166.951 68.971 C 166.951 65.663 168.125 62.835 170.473 60.488 C 172.820 58.141 175.646 56.969 178.953 56.969 Z M 352.594 56.969 C 355.901 56.969 358.729 58.141 361.076 60.488 C 363.423 62.835 364.598 65.663 364.598 68.971 C 364.598 72.278 363.423 75.106 361.076 77.453 C 358.729 79.800 355.901 80.975 352.594 80.975 C 349.286 80.975 346.461 79.800 344.113 77.453 C 341.766 75.106 340.592 72.278 340.592 68.971 C 340.592 65.663 341.766 62.835 344.113 60.488 C 346.461 58.141 349.286 56.969 352.594 56.969 Z "/>
  <g id="g11509">
    <path id="path11511" fill="#ffffff" stroke="none" stroke-width="1.25" d="M 146.8962 68.9213 C 146.8962 65.6137 145.7225 62.7862 143.375 60.4387 C 141.0288 58.0913 138.2012 56.9175 134.8937 56.9175 C 131.5862 56.9175 128.7587 58.0913 126.4112 60.4387 C 124.0637 62.7862 122.8912 65.6137 122.8912 68.9213 L 122.8912 88.925 L 114.8888 88.925 L 114.8888 32.9125 L 122.8912 32.9125 L 122.8912 52.8775 C 126.3313 50.2362 130.3325 48.9163 134.8937 48.9163 C 140.415 48.9163 145.1225 50.8762 149.0162 54.7975 C 152.9375 58.6913 154.8988 63.4 154.8988 68.9213 L 154.8988 88.925 L 146.8962 88.925 L 146.8962 68.9213 Z "/>
    <path id="path11513" fill="#ffffff" stroke="none" stroke-width="1.25" d="M 178.9038 88.925 C 173.3825 88.925 168.6612 86.9788 164.74 83.0837 C 160.8462 79.1638 158.8988 74.4425 158.8988 68.9213 C 158.8988 63.4 160.8462 58.6913 164.74 54.7975 C 168.6612 50.8762 173.3825 48.9163 178.9038 48.9163 C 184.425 48.9163 189.1325 50.8762 193.0275 54.7975 C 196.9475 58.6913 198.9087 63.4 198.9087 68.9213 C 198.9087 74.4425 196.9475 79.1638 193.0275 83.0837 C 189.1325 86.9788 184.425 88.925 178.9038 88.925 Z M 178.9038 56.9175 C 175.5962 56.9175 172.7687 58.0913 170.4212 60.4387 C 168.075 62.7862 166.9013 65.6137 166.9013 68.9213 C 166.9013 72.2288 168.075 75.0563 170.4212 77.4025 C 172.7687 79.75 175.5962 80.9238 178.9038 80.9238 C 182.2112 80.9238 185.0387 79.75 187.3863 77.4025 C 189.7325 75.0563 190.9062 72.2288 190.9062 68.9213 C 190.9062 65.6137 189.7325 62.7862 187.3863 60.4387 C 185.0387 58.0913 182.2112 56.9175 178.9038 56.9175 Z "/>
    <path id="path11515" fill="#ffffff" stroke="none" stroke-width="1.25" d="M 210.9112 68.9213 C 210.9112 72.2288 212.085 75.0563 214.4325 77.4025 C 216.7787 79.75 219.6062 80.9238 222.9137 80.9238 C 226.2212 80.9238 229.0487 79.75 231.3963 77.4025 C 233.7437 75.0563 234.9175 72.2288 234.9175 68.9213 L 234.9175 48.9163 L 242.9187 48.9163 L 242.9187 88.925 L 234.9175 88.925 L 234.9175 84.965 C 231.4762 87.605 227.475 88.925 222.9137 88.925 C 217.3925 88.925 212.6712 86.9788 208.7512 83.0837 C 204.8562 79.1638 202.91 74.4425 202.91 68.9213 L 202.91 48.9163 L 210.9112 48.9163 L 210.9112 68.9213 Z "/>
    <path id="path11517" fill="#ffffff" stroke="none" stroke-width="1.25" d="M 277.2462 75.1225 L 284.1287 79.2438 C 283.275 80.6038 282.2612 81.8713 281.0875 83.0438 C 277.1662 86.965 272.4463 88.925 266.925 88.925 C 261.4038 88.925 256.6825 86.9788 252.7612 83.0837 C 248.8675 79.1638 246.92 74.4425 246.92 68.9213 C 246.92 63.4 248.8675 58.6913 252.7612 54.7975 C 256.6825 50.8762 261.4038 48.9163 266.925 48.9163 C 272.4463 48.9163 277.1662 50.8637 281.0875 54.7575 C 282.2612 55.9575 283.275 57.2388 284.1287 58.5988 L 277.2462 62.72 C 276.74 61.9188 276.1262 61.1587 275.4063 60.4387 C 273.0587 58.0913 270.2325 56.9175 266.925 56.9175 C 263.6175 56.9175 260.79 58.0913 258.4425 60.4387 C 256.095 62.7862 254.9212 65.6137 254.9212 68.9213 C 254.9212 72.2288 256.095 75.0563 258.4425 77.4025 C 260.79 79.75 263.6175 80.9238 266.925 80.9238 C 270.2325 80.9238 273.0587 79.75 275.4063 77.4025 C 276.1262 76.6825 276.74 75.9225 277.2462 75.1225 Z "/>
    <path id="path11519" fill="#ffffff" stroke="none" stroke-width="1.25" d="M 320.5375 68.9213 C 320.5375 65.6137 319.3637 62.7862 317.0162 60.4387 C 314.6687 58.0913 311.8413 56.9175 308.5337 56.9175 C 305.2262 56.9175 302.4 58.0913 300.0525 60.4387 C 297.705 62.7862 296.5312 65.6137 296.5312 68.9213 L 296.5312 88.925 L 288.53 88.925 L 288.53 32.9125 L 296.5312 32.9125 L 296.5312 52.8775 C 299.9725 50.2362 303.9725 48.9163 308.5337 48.9163 C 314.055 48.9163 318.7637 50.8762 322.6575 54.7975 C 326.5787 58.6913 328.5387 63.4 328.5387 68.9213 L 328.5387 88.925 L 320.5375 88.925 L 320.5375 68.9213 Z "/>
    <path id="path11521" fill="#ffffff" stroke="none" stroke-width="1.25" d="M 352.545 56.9175 C 349.2375 56.9175 346.41 58.0913 344.0625 60.4387 C 341.715 62.7862 340.5412 65.6137 340.5412 68.9213 C 340.5412 72.2288 341.715 75.0563 344.0625 77.4025 C 346.41 79.75 349.2375 80.9238 352.545 80.9238 C 355.8525 80.9238 358.6787 79.75 361.0262 77.4025 C 363.3737 75.0563 364.5475 72.2288 364.5475 68.9213 C 364.5475 65.6137 363.3737 62.7862 361.0262 60.4387 C 358.6787 58.0913 355.8525 56.9175 352.545 56.9175 Z M 364.5475 84.965 C 361.1062 87.605 357.105 88.925 352.545 88.925 C 347.0238 88.925 342.3025 86.9788 338.3812 83.0837 C 334.4875 79.1638 332.54 74.4425 332.54 68.9213 C 332.54 63.4 334.4875 58.6913 338.3812 54.7975 C 342.3025 50.8762 347.0238 48.9163 352.545 48.9163 C 357.105 48.9163 361.1062 50.2362 364.5475 52.8775 L 364.5475 32.9125 L 372.5487 32.9125 L 372.5487 88.925 L 364.5475 88.925 L 364.5475 84.965 Z "/>
    <path id="path11523" fill="#ffffff" stroke="none" stroke-width="1.25" d="M 376.55 40.9138 L 376.55 32.9125 L 384.5525 32.9125 L 384.5525 40.9138 L 376.55 40.9138 Z M 376.55 48.9163 L 384.5525 48.9163 L 384.5525 84.925 C 384.5525 90.4463 382.5913 95.1538 378.67 99.0475 C 374.7762 102.9688 370.0688 104.9288 364.5475 104.9288 L 364.5475 96.9275 C 367.855 96.9275 370.6825 95.7537 373.0288 93.4063 C 375.3762 91.06 376.55 88.2325 376.55 84.925 L 376.55 48.9163 Z "/>
  </g>
</svg>