<svg xmlns="http://www.w3.org/2000/svg" xmlns:xlink="http://www.w3.org/1999/xlink" version="1.1" width="57" height="71" viewBox="-0.4309999942779541 -0.4869999997317791 57 71">
  <!-- Exported by Scratch - http://scratch.mit.edu/ -->
  <path id="path3094" fill="#ebebeb" stroke="none" d="M 14.069 0.013 C 10.168 0.013 6.86 1.403 4.163 4.138 C 1.428 6.872 0.069 10.148 0.069 14.013 L 0.069 28.013 C 0.069 31.914 1.402 35.221 4.1 37.919 C 6.834 40.653 10.168 42.013 14.069 42.013 L 35.069 42.013 C 36.965 42.013 38.59 42.721 39.975 44.106 C 41.36 45.492 42.069 47.117 42.069 49.013 C 42.069 50.945 41.36 52.627 39.975 54.013 C 38.59 55.361 36.965 56.013 35.069 56.013 L 7.069 56.013 C 5.136 56.013 3.485 56.721 2.1 58.106 C 0.751 59.492 0.069 61.117 0.069 63.013 C 0.069 64.945 0.751 66.627 2.1 68.013 C 3.485 69.361 5.136 70.013 7.069 70.013 L 42.069 70.013 C 45.933 70.013 49.215 68.679 51.913 65.981 C 54.683 63.247 56.069 59.914 56.069 56.013 L 56.069 42.013 C 56.069 38.148 54.709 34.867 51.975 32.169 C 49.241 29.398 45.933 28.013 42.069 28.013 L 21.069 28.013 C 19.136 28.013 17.485 27.361 16.1 26.013 C 14.751 24.627 14.069 22.945 14.069 21.013 C 14.069 19.117 14.751 17.492 16.1 16.106 C 17.485 14.721 19.136 14.013 21.069 14.013 L 49.069 14.013 C 50.965 14.013 52.59 13.362 53.975 12.013 C 55.36 10.627 56.069 8.945 56.069 7.013 C 56.069 5.117 55.36 3.492 53.975 2.106 C 52.59 0.721 50.965 0.013 49.069 0.013 L 14.069 0.013 Z " stroke-width="1"/>
</svg>