<svg xmlns="http://www.w3.org/2000/svg" xmlns:xlink="http://www.w3.org/1999/xlink" version="1.1" width="233.01600917572102" height="361.016009175721" viewBox="-0.5080045878605085 -0.5080045878605085 233.01600917572102 361.016009175721">
  <!-- Exported by Scratch - http://scratch.mit.edu/ -->
  <path id="ID0.3320084372535348" fill="#748063" stroke="none" d="M 0 0 L 232 0 L 232 360 L 0 360 L 0 0 Z " stroke-width="1"/>
  <path id="ID0.5856256149709225" fill="#E8F1DE" stroke="none" d="M 13.3193 14.0872 L 218.0268 14.0872 L 218.0268 289.5872 L 13.3193 289.5872 L 13.3193 14.0872 Z " stroke-width="1.016009175721017"/>
  <path id="ID0.1617080643773079" fill="#FFFFFF" stroke="none" d="M 116.0266 92.983 C 132.3046 92.983 147.0541 99.594 157.7343 110.2752 C 168.4156 120.9555 175.0266 135.705 175.0266 151.983 C 175.0266 168.2609 168.4156 183.0104 157.7343 193.6907 C 147.0541 204.372 132.3046 210.983 116.0266 210.983 C 99.7486 210.983 84.9991 204.372 74.3189 193.6907 C 63.6376 183.0104 57.0266 168.2609 57.0266 151.983 C 57.0266 135.705 63.6376 120.9555 74.3189 110.2752 C 84.9991 99.594 99.7486 92.983 116.0266 92.983 Z " stroke-width="1.0042552947998047"/>
</svg>