<svg xmlns="http://www.w3.org/2000/svg" xmlns:xlink="http://www.w3.org/1999/xlink" version="1.1" width="19.516000747680664" height="19.516000747680664" viewBox="-0.5 -0.5 19.516000747680664 19.516000747680664">
  <!-- Exported by Scratch - http://scratch.mit.edu/ -->
  <path id="path7" fill="#FF3464" stroke="none" d="M 0 9.258 C 0 4.148 4.148 0 9.258 0 C 14.373 0 18.516 4.148 18.516 9.258 C 18.516 14.373 14.373 18.516 9.258 18.516 C 4.148 18.516 0 14.373 0 9.258 Z " stroke-width="1"/>
  <path id="path7" fill="#FFFFFF" stroke="none" d="M 4.3859 6.5896 C 4.3859 5.5194 5.2529 4.6524 6.3231 4.6524 L 11.7878 4.6524 C 12.8579 4.6524 13.7258 5.5194 13.7258 6.5896 L 13.7258 12.2285 C 13.7258 13.2987 12.8579 14.1656 11.7878 14.1656 L 6.3231 14.1656 C 5.2529 14.1656 4.3859 13.2987 4.3859 12.2285 Z " stroke-width="0.15175502002239227"/>
  <path id="path11" fill="#EE2A4B" stroke="none" d="M 10.3732 7.4936 C 10.3723 7.0183 10.7578 6.633 11.2331 6.633 C 11.7075 6.633 12.0928 7.0183 12.0928 7.4936 C 12.0928 7.968 11.7075 8.3534 11.2331 8.3534 C 10.7578 8.3534 10.3732 7.968 10.3732 7.4936 Z " stroke-width="0.15175502002239227"/>
  <path id="path15" fill="#FFFFFF" stroke="none" d="M 4.4311 7.3313 L 1.5537 7.3313 L 4.4311 10.1796 Z " stroke-width="0.10002035647630692"/>
  <path id="path17" fill="#FFFFFF" stroke="none" d="M 13.7266 6.8514 L 13.7266 9.5183 L 16.3935 6.8514 Z " stroke-width="0.15175502002239227"/>
  <path id="path19" fill="#FFFFFF" stroke="none" d="M 13.7266 12.1852 L 16.3935 12.1852 L 13.7266 9.5183 Z " stroke-width="0.15175502002239227"/>
</svg>