<svg xmlns="http://www.w3.org/2000/svg" xmlns:xlink="http://www.w3.org/1999/xlink" version="1.1" width="57" height="71" viewBox="-0.5190000012516975 -0.3999999985098839 57 71">
  <!-- Exported by Scratch - http://scratch.mit.edu/ -->
  <path id="path3137" fill="#ebebeb" stroke="none" d="M 6.981 0.1 C 5.049 0.1 3.398 0.808 2.013 2.194 C 0.664 3.579 -0.019 5.204 -0.019 7.1 C -0.019 9.032 0.664 10.683 2.013 12.069 C 3.398 13.418 5.049 14.1 6.981 14.1 L 41.981 14.1 L 41.981 28.1 C 29.205 41.094 22.915 41.343 18.075 46.194 C 15.492 48.777 14.191 52.334 13.981 56.1 L 13.981 63.1 C 13.981 65.032 14.664 66.683 16.013 68.069 C 17.398 69.418 19.049 70.1 20.981 70.1 C 22.877 70.1 24.533 69.418 25.919 68.069 C 27.304 66.683 27.981 65.032 27.981 63.1 L 27.981 56.1 C 40.723 43.696 46.998 42.896 51.825 38.069 C 54.433 35.472 55.827 31.912 55.981 28.1 L 55.981 14.1 C 55.981 10.235 54.622 6.954 51.888 4.256 C 49.153 1.485 45.846 0.1 41.981 0.1 L 6.981 0.1 Z " stroke-width="1"/>
</svg>