<svg xmlns="http://www.w3.org/2000/svg" xmlns:xlink="http://www.w3.org/1999/xlink" version="1.1" width="57" height="71" viewBox="-0.5 -0.4869999997317791 57 71">
  <!-- Exported by Scratch - http://scratch.mit.edu/ -->
  <path id="path3106" fill="#ebebeb" stroke="none" d="M 7 0.013 C 5.068 0.013 3.417 0.721 2.031 2.106 C 0.682 3.492 0 5.117 0 7.013 C 0 8.945 0.682 10.627 2.031 12.013 C 3.417 13.362 5.068 14.013 7 14.013 L 14 14.013 C 15.896 14.013 17.552 14.721 18.938 16.106 C 20.323 17.492 21 19.117 21 21.013 L 21 56.013 L 7 56.013 C 5.068 56.013 3.417 56.721 2.031 58.106 C 0.682 59.492 0 61.117 0 63.013 C 0 64.945 0.682 66.627 2.031 68.013 C 3.417 69.361 5.068 70.013 7 70.013 L 49 70.013 C 50.896 70.013 52.521 69.361 53.906 68.013 C 55.292 66.627 56 64.945 56 63.013 C 56 61.117 55.292 59.492 53.906 58.106 C 52.521 56.721 50.896 56.013 49 56.013 L 35 56.013 L 35 14.013 C 35 10.148 34.323 6.872 32.938 4.138 C 31.589 1.403 29.932 0.013 28 0.013 L 7 0.013 Z " stroke-width="1"/>
</svg>