<svg xmlns="http://www.w3.org/2000/svg" xmlns:xlink="http://www.w3.org/1999/xlink" version="1.1" width="19.516000747680664" height="19.516000747680664" viewBox="-0.5 -0.5 19.516000747680664 19.516000747680664">
  <!-- Exported by Scratch - http://scratch.mit.edu/ -->
  <path id="path7" fill="#EE2A4B" stroke="none" d="M 0 9.258 C 0 4.148 4.148 0 9.258 0 C 14.373 0 18.516 4.148 18.516 9.258 C 18.516 14.373 14.373 18.516 9.258 18.516 C 4.148 18.516 0 14.373 0 9.258 Z " stroke-width="1"/>
  <path id="ID0.6392796700820327" fill="#FFFFFF" d="M 4.0007 10.5057 C 4.0964 10.1037 4.3405 9.4576 4.733 8.5675 C 5.1254 7.6773 5.3408 6.9642 5.3791 6.4282 C 5.7619 7.1365 5.9821 7.8448 6.0395 8.5531 C 7.4944 6.7536 8.2505 4.6575 8.308 2.2646 C 8.4037 2.322 8.5281 2.4033 8.6813 2.5086 C 8.8344 2.6139 9.1168 2.8389 9.5284 3.1834 C 9.9399 3.528 10.3037 3.8869 10.6195 4.2602 C 10.9354 4.6335 11.2321 5.1073 11.5097 5.6816 C 11.7873 6.2559 11.9548 6.8302 12.0122 7.4045 C 12.1653 7.0599 12.2611 6.6771 12.2993 6.2559 C 12.3376 5.8348 12.2898 5.4423 12.1558 5.0786 C 12.3089 5.1935 12.5099 5.3849 12.7588 5.6529 C 13.0076 5.9209 13.2852 6.2846 13.5915 6.7441 C 13.8978 7.2035 14.1706 7.6917 14.4099 8.2085 C 14.6492 8.7254 14.8023 9.3045 14.8693 9.9458 C 14.9363 10.5871 14.8933 11.2092 14.7401 11.8122 C 14.5869 12.4153 14.2328 13.0374 13.6776 13.6787 C 13.1225 14.32 12.3759 14.9087 11.4379 15.4447 C 12.0696 14.1812 12.194 12.8173 11.8112 11.3528 C 11.4283 9.8883 10.6722 8.7637 9.5427 7.9788 C 9.6384 8.4 9.5858 9.0939 9.3848 10.0606 C 9.1838 11.0274 8.8631 11.7596 8.4228 12.2573 C 8.4994 11.6447 8.5185 11.147 8.4803 10.7642 C 8.442 10.3813 8.3845 10.0941 8.308 9.9027 L 8.1644 9.6443 C 8.0495 10.3334 7.7528 11.0226 7.2742 11.7117 C 7.0254 12.0755 6.8387 12.4105 6.7143 12.7168 C 6.5899 13.0231 6.542 13.4155 6.5707 13.8941 C 6.5994 14.3727 6.7478 14.8895 7.0158 15.4447 C 5.6949 14.6981 4.8095 13.9419 4.3597 13.1762 C 3.9098 12.4105 3.7901 11.5203 4.0007 10.5057 Z " stroke-width="0.014702933840453625"/>
</svg>