<svg xmlns="http://www.w3.org/2000/svg" xmlns:xlink="http://www.w3.org/1999/xlink" version="1.1" width="81.75" height="47.03499984741211" viewBox="-0.4949999996460974 -0.4949999996460974 81.75 47.03499984741211">
  <!-- Exported by Scratch - http://scratch.mit.edu/ -->
  <g id="ID0.46890557697042823">
    <path id="path7" fill="#2AB5FF" stroke="none" d="M 80.755 13.680 L 76.216 24.393 L 57.250 25.298 L 58.240 20.870 L 80.755 13.680 Z " stroke-width="1"/>
    <path id="path9" fill="#2AB5FF" stroke="none" d="M 5.131 0.005 L 5.459 11.638 L 22.785 19.388 L 23.483 14.908 L 5.131 0.005 Z " stroke-width="1"/>
    <path id="path11" fill="#64DCFF" stroke="none" d="M 1.698 18.912 L 21.774 20.018 L 22.240 18.902 L 5.438 11.617 L 1.698 18.912 Z " stroke-width="1"/>
    <path id="path13" fill="#64DCFF" stroke="none" d="M 75.956 32.328 L 57.541 27.075 L 57.647 25.213 L 76.205 24.409 L 75.956 32.328 Z " stroke-width="1"/>
    <path id="path15" fill="#2AB5FF" stroke="none" d="M 1.428 18.690 L 2.851 25.001 L 20.341 23.102 L 21.208 19.981 L 1.428 18.690 Z " stroke-width="1"/>
    <path id="path17" fill="#2AB5FF" stroke="none" d="M 75.951 32.318 L 72.798 38.497 L 56.970 30.392 L 57.229 26.953 L 75.951 32.318 Z " stroke-width="1"/>
    <path id="path19" fill="#64DCFF" stroke="none" d="M 2.820 24.933 L 0.005 33.032 C 7.464 30.080 16.706 27.662 24.166 24.710 L 22.996 22.785 L 2.820 24.933 Z " stroke-width="1"/>
    <path id="path21" fill="#64DCFF" stroke="none" d="M 72.766 38.465 L 72.920 46.040 C 66.952 40.687 58.398 36.460 52.431 31.106 L 54.727 29.239 L 72.766 38.465 Z " stroke-width="1"/>
    <path id="path23" fill="#0F7EFB" stroke="none" d="M 18.463 23.367 C 18.463 12.062 27.631 2.899 38.936 2.899 C 50.241 2.899 59.409 12.062 59.409 23.367 C 59.409 34.677 50.241 43.840 38.936 43.840 C 27.631 43.840 18.463 34.677 18.463 23.367 Z " stroke-width="1"/>
    <path id="path25" fill="#ffffff" stroke="none" d="M 48.305 16.627 C 48.305 15.670 49.082 14.892 50.040 14.892 C 50.997 14.892 51.770 15.670 51.770 16.627 C 51.770 17.585 50.997 18.362 50.040 18.362 C 49.082 18.362 48.305 17.585 48.305 16.627 Z " stroke-width="1"/>
    <path id="path27" fill="#28A0F6" stroke="none" d="M 18.606 22.065 C 18.854 12.437 24.795 7.591 29.969 4.878 C 35.143 2.169 42.882 1.952 49.632 5.803 C 48.125 14.791 44.512 19.230 39.343 21.938 C 34.169 24.652 27.821 27.059 18.606 22.065 Z " stroke-width="1"/>
    <path id="path29" fill="#ffffff" stroke="none" d="M 42.395 11.384 C 42.395 9.448 43.961 7.882 45.898 7.882 C 47.834 7.882 49.405 9.448 49.405 11.384 C 49.405 13.321 47.834 14.892 45.898 14.892 C 43.961 14.892 42.395 13.321 42.395 11.384 Z " stroke-width="1"/>
  </g>
</svg>