<svg xmlns="http://www.w3.org/2000/svg" xmlns:xlink="http://www.w3.org/1999/xlink" version="1.1" width="61.246633529663086" height="61.24942970275879" viewBox="-0.8754149675369263 -0.5723149180412292 61.246633529663086 61.24942970275879">
  <!-- Exported by Scratch - http://scratch.mit.edu/ -->
  <path id="path15" fill="#B75305" stroke="none" d="M 0.5422 10.3631 C 0.5422 5.1151 4.8007 0.8453 10.0573 0.8453 L 49.4386 0.8453 C 54.6951 0.8453 58.9536 5.1151 58.9536 10.3631 L 58.9536 49.7445 C 58.9536 55.001 54.6951 59.2595 49.4386 59.2595 L 10.0573 59.2595 C 4.8007 59.2595 0.5422 55.001 0.5422 49.7445 Z " stroke-width="2.8352298736572266"/>
  <path id="path17" fill="#FFFFFF" stroke="none" d="M 28.6932 40.2181 L 28.6932 40.2181 C 35.1292 40.2181 40.3488 34.9984 40.3488 28.5568 L 40.3488 13.6492 L 17.0319 13.6492 L 17.0319 28.5568 C 17.0319 34.9984 22.2516 40.2181 28.6932 40.2181 Z " stroke-width="2.8352298736572266"/>
  <path id="path19" fill="none" stroke="#FFFFFF" stroke-width="2.8352298736572266" stroke-linecap="butt" stroke-linejoin="miter" d="M 35.8267 33.7481 L 40.3488 33.7481 C 42.8467 33.7481 44.871 31.7209 44.871 29.2259 L 44.871 17.0373 L 35.8267 17.0373 Z "/>
  <path id="path21" fill="none" stroke="#FFFFFF" stroke-width="2.8352298736572266" stroke-linecap="butt" stroke-linejoin="miter" d="M 21.1799 33.7481 L 16.6577 33.7481 C 14.1598 33.7481 12.1355 31.7209 12.1355 29.2259 L 12.1355 17.0373 L 21.1799 17.0373 Z "/>
  <path id="path23" fill="#FFFFFF" stroke="none" d="M 25.8381 38.5226 L 25.8381 46.0615 L 31.6787 46.0615 L 31.6787 38.5226 L 25.8381 38.5226 Z " stroke-width="2.8352298736572266"/>
  <path id="path25" fill="#FFFFFF" stroke="none" d="M 19.079 45.3328 L 28.2963 43.0448 L 38.0835 45.3328 L 38.3018 49.8324 L 19.0506 49.8324 C 19.0648 48.3325 19.0733 46.8327 19.079 45.3328 Z " stroke-width="2.8352298736572266"/>
</svg>