<svg xmlns="http://www.w3.org/2000/svg" xmlns:xlink="http://www.w3.org/1999/xlink" version="1.1" width="11.876999855041504" height="18.36400032043457" viewBox="-0.0690000057220459 0.07300001382827759 11.876999855041504 18.36400032043457">
  <!-- Exported by Scratch - http://scratch.mit.edu/ -->
  <g id="ID0.8724807193502784">
    <g id="text3428">
      <path id="path3448" fill="#FFFFFF" stroke="none" stroke-width="1" d="M 2.874 11.103 L 0.431 10.396 L 2.465 0.573 L 10.068 0.573 L 10.068 3.054 L 4.487 3.054 L 3.631 7.159 C 4.276 6.903 4.974 6.774 5.727 6.774 C 7.265 6.774 8.579 7.32 9.671 8.412 C 10.762 9.503 11.308 10.818 11.308 12.356 C 11.308 13.893 10.762 15.208 9.671 16.299 C 8.579 17.391 7.265 17.937 5.727 17.937 C 4.189 17.937 2.874 17.391 1.783 16.299 C 1.188 15.704 0.753 15.039 0.481 14.303 L 2.874 13.608 C 3.031 13.955 3.25 14.27 3.532 14.551 C 4.135 15.154 4.867 15.456 5.727 15.456 C 6.587 15.456 7.318 15.154 7.922 14.551 C 8.526 13.947 8.827 13.215 8.827 12.356 C 8.827 11.496 8.526 10.764 7.922 10.16 C 7.318 9.557 6.587 9.255 5.727 9.255 C 4.867 9.255 4.135 9.557 3.532 10.16 C 3.242 10.45 3.023 10.764 2.874 11.103 Z "/>
    </g>
  </g>
</svg>