<svg xmlns="http://www.w3.org/2000/svg" xmlns:xlink="http://www.w3.org/1999/xlink" version="1.1" width="15.883000373840332" height="18.36400032043457" viewBox="-0.3540000021457672 0.07300001382827759 15.883000373840332 18.36400032043457">
  <!-- Exported by Scratch - http://scratch.mit.edu/ -->
  <g id="ID0.21702361525967717">
    <g id="text3428">
      <path id="path3433" fill="#808080" stroke="none" stroke-width="1" d="M 7.587 0.573 C 9.646 0.573 11.399 1.421 12.846 3.116 C 14.301 4.811 15.029 6.857 15.029 9.255 C 15.029 11.653 14.301 13.699 12.846 15.394 C 11.399 17.089 9.646 17.937 7.587 17.937 C 5.528 17.937 3.771 17.089 2.316 15.394 C 0.869 13.699 0.146 11.653 0.146 9.255 C 0.146 6.857 0.869 4.811 2.316 3.116 C 3.771 1.421 5.528 0.573 7.587 0.573 Z M 7.587 3.054 C 6.215 3.054 5.045 3.661 4.077 4.877 C 3.11 6.084 2.626 7.543 2.626 9.255 C 2.626 10.966 3.11 12.43 4.077 13.645 C 5.045 14.853 6.215 15.456 7.587 15.456 C 8.96 15.456 10.13 14.853 11.097 13.645 C 12.064 12.43 12.548 10.966 12.548 9.255 C 12.548 7.543 12.064 6.084 11.097 4.877 C 10.13 3.661 8.96 3.054 7.587 3.054 Z "/>
    </g>
  </g>
</svg>