<svg xmlns="http://www.w3.org/2000/svg" xmlns:xlink="http://www.w3.org/1999/xlink" version="1.1" width="97.12799835205078" height="63.6879997253418" viewBox="-0.46299999952316284 -0.4839999992400408 97.12799835205078 63.6879997253418">
  <!-- Exported by Scratch - http://scratch.mit.edu/ -->
  <g id="ID0.5999160134233534">
    <path id="path7" fill="#FF3464" stroke="none" d="M 17.040 12.781 C 17.040 5.729 22.753 0.016 29.805 0.016 L 65.815 0.016 C 72.867 0.016 78.586 5.729 78.586 12.781 L 78.586 49.939 C 78.586 56.991 72.867 62.704 65.815 62.704 L 29.805 62.704 C 22.753 62.704 17.040 56.991 17.040 49.939 Z " stroke-width="1"/>
    <path id="path9" fill="#EE2A4B" stroke="none" d="M 66.408 62.704 L 29.218 62.704 C 22.489 62.704 17.040 57.256 17.040 50.532 L 17.040 32.080 L 78.586 32.080 L 78.586 50.532 C 78.586 57.256 73.131 62.704 66.408 62.704 Z " stroke-width="1"/>
    <path id="path11" fill="#ffffff" stroke="none" d="M 56.494 18.738 C 56.488 15.606 59.028 13.067 62.160 13.067 C 65.286 13.067 67.825 15.606 67.825 18.738 C 67.825 21.864 65.286 24.404 62.160 24.404 C 59.028 24.404 56.494 21.864 56.494 18.738 Z " stroke-width="1"/>
    <path id="path13" fill="#c82343" stroke="none" d="M 28.805 32.080 L 28.805 6.041 L 54.843 32.080 Z " stroke-width="1"/>
    <path id="path15" fill="#ff3464" stroke="none" d="M 28.805 19.309 L 0.037 19.309 L 28.805 47.786 Z " stroke-width="1"/>
    <path id="path17" fill="#ffc600" stroke="none" d="M 78.591 14.506 L 78.591 32.080 L 96.165 14.506 Z " stroke-width="1"/>
    <path id="path19" fill="#eaab00" stroke="none" d="M 78.591 49.654 L 96.165 49.654 L 78.591 32.080 Z " stroke-width="1"/>
  </g>
</svg>