<svg xmlns="http://www.w3.org/2000/svg" xmlns:xlink="http://www.w3.org/1999/xlink" version="1.1" width="57" height="71" viewBox="-0.5190000012516975 -0.4619999974966049 57 71">
  <!-- Exported by Scratch - http://scratch.mit.edu/ -->
  <path id="path3100" fill="#ebebeb" stroke="none" d="M 6.981 0.038 C 5.049 0.038 3.398 0.715 2.013 2.1 C 0.664 3.485 -0.019 5.142 -0.019 7.038 C -0.019 8.97 0.664 10.621 2.013 12.006 C 3.398 13.355 5.049 14.038 6.981 14.038 L 34.981 14.038 C 36.877 14.038 38.533 14.715 39.919 16.1 C 41.304 17.485 41.981 19.142 41.981 21.038 C 41.981 22.97 41.304 24.621 39.919 26.006 C 38.533 27.355 36.877 28.038 34.981 28.038 L 20.981 28.038 C 19.049 28.038 17.398 28.715 16.013 30.1 C 14.664 31.485 13.981 33.142 13.981 35.038 C 13.981 36.97 14.664 38.621 16.013 40.006 C 17.398 41.355 19.049 42.038 20.981 42.038 L 34.981 42.038 C 36.877 42.038 38.533 42.715 39.919 44.1 C 41.304 45.485 41.981 47.142 41.981 49.038 C 41.981 50.97 41.304 52.621 39.919 54.006 C 38.533 55.355 36.877 56.038 34.981 56.038 L 6.981 56.038 C 5.049 56.038 3.398 56.715 2.013 58.1 C 0.664 59.485 -0.019 61.142 -0.019 63.038 C -0.019 64.97 0.664 66.621 2.013 68.006 C 3.398 69.355 5.049 70.038 6.981 70.038 L 41.981 70.038 C 45.846 70.038 49.127 68.673 51.825 65.975 C 54.596 63.241 55.981 59.939 55.981 56.038 L 55.981 42.038 C 55.981 40.142 55.304 38.485 53.919 37.1 C 52.533 35.715 50.877 35.038 48.981 35.038 C 50.877 35.038 52.533 34.355 53.919 33.006 C 55.304 31.621 55.981 29.97 55.981 28.038 L 55.981 14.038 C 55.981 10.173 54.596 6.866 51.825 4.131 C 49.127 1.397 45.846 0.038 41.981 0.038 L 6.981 0.038 Z " stroke-width="1"/>
</svg>