<svg xmlns="http://www.w3.org/2000/svg" xmlns:xlink="http://www.w3.org/1999/xlink" version="1.1" width="57" height="71" viewBox="-0.5 0.46900004148483276 57 71">
  <!-- Exported by Scratch - http://scratch.mit.edu/ -->
  <path id="path3082" fill="#ebebeb" stroke="none" d="M 14 0.969 C 10.099 0.969 6.792 2.328 4.094 5.063 C 1.359 7.797 0 11.104 0 14.969 L 0 56.969 C 0 60.87 1.333 64.177 4.031 66.875 C 6.766 69.609 10.099 70.969 14 70.969 L 42 70.969 C 45.865 70.969 49.146 69.604 51.844 66.906 C 54.615 64.172 56 60.87 56 56.969 L 56 14.969 C 56 11.104 54.641 7.823 51.906 5.125 C 49.172 2.354 45.865 0.969 42 0.969 L 14 0.969 Z M 21 14.969 L 35 14.969 C 36.896 14.969 38.521 15.646 39.906 17.031 C 41.292 18.417 42 20.073 42 21.969 L 42 49.969 C 42 51.901 41.292 53.552 39.906 54.938 C 38.521 56.286 36.896 56.969 35 56.969 L 21 56.969 C 19.068 56.969 17.417 56.286 16.031 54.938 C 14.682 53.552 14 51.901 14 49.969 L 14 21.969 C 14 20.073 14.682 18.417 16.031 17.031 C 17.417 15.646 19.068 14.969 21 14.969 Z " stroke-width="1"/>
</svg>